<!DOCTYPE svg PUBLIC "-//W3C//DTD SVG 20010904//EN" "http://www.w3.org/TR/2001/REC-SVG-20010904/DTD/svg10.dtd">
<svg version="1.0" xmlns="http://www.w3.org/2000/svg" width="337px" height="323px" viewBox="0 0 3370 3230" preserveAspectRatio="xMidYMid meet">
<!-- generated by www.vectorizer.io -->
<g id="layer1" fill="#62a6da" stroke="none">
 <path d="M2790 2190 c-13 -24 -6 -55 10 -45 22 13 30 43 15 55 -11 9 -16 7 -25 -10z"/>
 <path d="M2763 2114 c-9 -23 11 -38 26 -20 13 16 7 36 -10 36 -5 0 -12 -7 -16 -16z"/>
 <path d="M2714 1995 c-13 -20 -14 -29 -5 -38 10 -9 16 -8 27 7 8 11 14 25 14 32 0 25 -19 24 -36 -1z"/>
 <path d="M2665 1890 c-4 -6 -4 -14 -1 -17 3 -3 -2 -11 -11 -18 -9 -7 -13 -17 -9 -23 12 -19 25 -14 40 17 13 25 13 31 2 40 -11 9 -16 9 -21 1z"/>
 <path d="M2585 1731 c-8 -14 13 -53 26 -46 13 9 11 31 -5 44 -10 8 -16 9 -21 2z"/>
 <path d="M2390 671 c-7 -13 -7 -22 0 -26 13 -8 30 3 30 20 0 23 -18 27 -30 6z"/>
 <path d="M1347 523 c-4 -3 -7 -14 -7 -24 0 -13 -11 -20 -37 -25 -63 -11 -83 -44 -27 -44 58 0 129 58 109 90 -7 11 -28 13 -38 3z"/>
 <path d="M2400 475 c-10 -12 -9 -16 5 -21 19 -8 40 9 31 25 -10 15 -21 14 -36 -4z"/>
 </g>
<g id="layer2" fill="#217ac6" stroke="none">
 <path d="M2744 2063 c-10 -21 -19 -41 -21 -44 -1 -4 4 -12 12 -19 11 -9 18 -4 35 30 21 41 21 70 1 70 -6 0 -18 -17 -27 -37z"/>
 <path d="M2704 1958 c-28 -38 -38 -68 -25 -81 10 -9 16 -7 32 12 10 13 19 32 19 42 0 10 0 22 1 26 1 13 -18 14 -27 1z"/>
 <path d="M2639 1818 c-7 -13 -21 -38 -31 -57 -19 -34 -12 -61 12 -46 16 10 60 106 54 117 -9 14 -23 9 -35 -14z"/>
 <path d="M2396 652 c-3 -4 -2 -46 2 -93 6 -75 9 -84 27 -84 18 0 20 6 17 55 -2 30 -7 70 -10 89 -7 34 -25 50 -36 33z"/>
 </g>
<g id="layer3" fill="#3ec1f3" stroke="none">
 <path d="M2811 2187 c-19 -23 -41 -96 -30 -102 15 -10 27 3 39 41 7 19 17 33 23 31 14 -4 79 -99 108 -156 57 -114 99 -288 99 -410 0 -205 -89 -484 -214 -670 -44 -65 -147 -191 -156 -191 -4 0 -10 36 -14 81 -5 61 -3 86 8 107 39 71 86 174 86 186 0 7 7 30 15 51 17 40 17 144 0 147 -5 1 -11 -7 -13 -18 -13 -103 -41 -192 -90 -292 l-55 -114 11 -62 c7 -35 12 -78 12 -95 0 -58 27 -52 95 21 100 108 218 293 259 407 68 188 79 238 84 400 5 159 -10 261 -55 375 -43 112 -155 276 -188 276 -7 0 -18 -6 -24 -13z"/>
 <path d="M2730 1990 c-14 -26 -4 -45 16 -29 16 13 18 35 5 44 -6 3 -15 -4 -21 -15z"/>
 <path d="M2670 1860 c-14 -26 -4 -45 16 -29 16 13 18 35 5 44 -6 3 -15 -4 -21 -15z"/>
 <path d="M2607 1724 c-15 -15 -6 -38 37 -85 24 -27 53 -66 63 -86 20 -38 50 -145 55 -193 5 -43 23 -27 26 24 5 79 -46 196 -124 283 -16 17 -34 39 -39 48 -6 9 -13 13 -18 9z"/>
 <path d="M2315 616 c-159 -96 -296 -136 -472 -136 -134 0 -188 12 -298 67 -52 26 -77 33 -99 29 -36 -8 -76 -43 -76 -68 0 -22 -73 -70 -95 -62 -9 4 -32 -2 -51 -12 -33 -18 -36 -18 -65 -1 -35 19 -71 22 -100 7 -45 -24 -3 -67 121 -123 263 -118 558 -127 869 -27 170 54 386 169 363 192 -11 11 -20 8 -67 -22 -58 -37 -197 -101 -275 -127 -327 -106 -654 -95 -910 31 -62 30 -80 43 -73 49 11 12 40 7 53 -8 18 -21 79 -19 115 5 16 10 39 17 50 15 30 -7 99 37 103 66 8 55 52 64 123 25 108 -60 153 -70 314 -70 162 0 198 7 345 67 81 33 215 116 213 132 -3 19 -19 14 -88 -29z"/>
 </g>
<g id="layer4" fill="#a6dcf5" stroke="none">
 <path d="M2802 2218 c-15 -15 3 -38 29 -38 33 0 137 -157 178 -270 42 -116 53 -202 49 -358 -5 -164 -16 -214 -84 -403 -21 -58 -92 -188 -144 -264 -55 -79 -147 -185 -161 -185 -5 0 -9 12 -9 26 0 15 -5 55 -12 90 l-11 63 52 103 c87 174 112 340 72 478 -26 89 -42 118 -108 192 -62 69 -68 74 -78 58 -3 -5 16 -36 44 -67 157 -176 163 -416 19 -683 l-41 -75 17 -99 c16 -99 35 -140 61 -129 25 9 165 180 222 270 85 135 133 246 175 403 19 72 22 110 22 255 0 148 -3 180 -23 250 -41 140 -109 266 -194 358 -36 39 -55 45 -75 25z"/>
 <path d="M2770 2145 c-10 -12 -10 -19 -2 -27 15 -15 48 14 38 31 -10 15 -21 14 -36 -4z"/>
 <path d="M2705 1991 c-7 -12 12 -24 25 -16 11 7 4 25 -10 25 -5 0 -11 -4 -15 -9z"/>
 <path d="M2655 1870 c-11 -17 5 -32 21 -19 7 6 11 15 8 20 -7 12 -21 11 -29 -1z"/>
 <path d="M2359 666 c-86 -84 -355 -176 -514 -176 -105 0 -256 42 -325 90 -35 24 -77 30 -91 14 -6 -8 -19 -14 -29 -14 -23 0 -54 -36 -47 -55 8 -20 20 -19 42 5 32 36 74 35 150 -3 110 -55 164 -67 298 -67 130 0 227 19 339 67 75 32 168 85 204 116 22 19 24 25 12 35 -11 9 -19 6 -39 -12z"/>
 <path d="M1054 456 c-18 -8 -35 -19 -39 -26 -26 -41 138 -136 331 -192 71 -20 100 -23 289 -23 186 0 220 3 295 23 47 13 102 27 123 33 21 5 45 13 55 18 9 5 42 19 72 31 30 12 84 38 120 58 36 19 77 41 93 49 15 8 27 19 27 24 0 20 -31 20 -59 -1 -50 -35 -213 -109 -312 -140 -88 -29 -132 -38 -274 -60 -137 -22 -325 -5 -476 41 -91 27 -234 100 -234 119 0 21 59 25 87 6 30 -21 50 -20 82 5 34 27 22 43 -20 29 -24 -8 -37 -7 -60 5 -35 18 -59 18 -100 1z"/>
 </g>
<g id="layer5" fill="#7f82bc" stroke="none">
 <path d="M474 3108 c-4 -6 7 -22 26 -38 31 -25 32 -29 26 -76 -7 -52 -7 -65 -2 -156 2 -32 0 -55 -4 -53 -10 6 -85 -22 -83 -32 6 -22 53 -12 88 18 36 32 37 34 31 88 -3 31 -5 61 -6 66 0 6 2 33 6 60 5 46 3 54 -27 93 -35 44 -43 49 -55 30z"/>
 <path d="M898 3093 c-39 -42 -48 -67 -48 -130 0 -64 24 -117 59 -128 36 -11 23 -25 -23 -25 -34 0 -47 5 -59 23 -14 20 -16 21 -22 4 -14 -35 21 -57 92 -57 62 0 73 -6 52 -27 -20 -20 8 -24 32 -4 20 16 21 21 10 35 -10 12 -11 19 -2 30 13 16 -10 41 -31 33 -7 -2 -25 5 -40 15 -27 18 -28 23 -28 102 0 78 1 84 30 111 16 15 27 32 24 37 -9 14 -19 9 -46 -19z"/>
 <path d="M1063 3103 c-3 -10 -12 -25 -20 -35 -8 -9 -10 -19 -5 -22 14 -8 52 23 52 44 0 26 -19 35 -27 13z"/>
 <path d="M1595 3110 c-4 -6 3 -22 15 -35 16 -18 21 -33 18 -62 -4 -46 12 -58 30 -21 10 22 10 33 -1 60 -18 42 -52 74 -62 58z"/>
 <path d="M1716 3113 c-3 -3 -6 -51 -6 -107 0 -93 -2 -102 -25 -126 -22 -23 -24 -29 -12 -39 11 -9 19 -4 41 27 24 35 26 46 26 139 0 93 -7 123 -24 106z"/>
 <path d="M1764 3106 c-3 -8 -4 -60 -2 -115 2 -79 7 -104 20 -118 13 -12 21 -14 28 -7 8 8 6 15 -5 24 -12 10 -15 35 -15 116 0 95 -11 138 -26 100z"/>
 <path d="M1924 3105 c-4 -8 -3 -23 0 -32 6 -15 8 -15 23 -1 16 17 12 48 -7 48 -6 0 -13 -7 -16 -15z"/>
 <path d="M2306 3111 c-8 -12 40 -54 53 -47 7 4 8 1 5 -9 -7 -17 14 -48 27 -40 13 8 -1 37 -34 73 -32 33 -42 38 -51 23z"/>
 <path d="M2463 3088 c-33 -36 -47 -65 -34 -73 13 -7 34 23 28 39 -4 9 -1 13 6 11 17 -7 61 30 53 44 -11 17 -20 14 -53 -21z"/>
 <path d="M2755 3110 c-9 -15 15 -42 32 -36 8 3 11 1 8 -5 -9 -13 23 -61 35 -54 15 10 12 18 -22 63 -34 44 -42 49 -53 32z"/>
 <path d="M2844 3106 c-9 -24 12 -50 71 -91 30 -21 55 -42 55 -47 0 -4 -27 -29 -60 -55 -60 -47 -72 -70 -45 -93 19 -16 42 -7 105 40 29 22 61 42 71 45 11 4 39 -10 79 -39 72 -53 92 -61 120 -46 25 13 26 48 3 57 -31 11 -113 77 -113 89 0 12 81 75 113 87 19 7 22 22 7 32 -9 5 -160 -99 -160 -111 0 -18 26 -46 75 -79 30 -21 55 -40 55 -42 0 -1 -8 -3 -18 -3 -10 0 -45 20 -78 45 -32 24 -66 45 -75 45 -8 0 -42 -20 -75 -43 -104 -77 -134 -71 -34 6 34 27 60 55 60 65 0 11 -27 38 -65 66 -36 26 -65 54 -65 61 0 20 -19 29 -26 11z"/>
 <path d="M2905 3110 c-4 -7 1 -20 11 -30 24 -22 124 -90 133 -90 11 0 95 57 126 86 21 20 25 28 16 37 -10 9 -15 8 -24 -3 -26 -34 -109 -89 -125 -83 -23 9 -72 42 -103 70 -19 18 -29 21 -34 13z"/>
 <path d="M1287 3094 c-9 -9 9 -40 27 -47 9 -4 18 -2 20 2 7 10 -38 53 -47 45z"/>
 <path d="M160 3055 c-19 -23 -2 -37 25 -19 25 16 25 34 1 34 -8 0 -19 -7 -26 -15z"/>
 <path d="M426 3061 c-4 -6 4 -15 16 -22 47 -24 44 -54 -6 -67 -17 -5 -29 -12 -26 -18 8 -15 63 -7 77 12 13 18 11 70 -3 84 -16 14 -52 21 -58 11z"/>
 <path d="M940 3050 c-24 -24 -25 -43 -5 -60 18 -15 40 -3 26 14 -12 14 -3 30 22 39 20 8 14 27 -9 27 -8 0 -23 -9 -34 -20z"/>
 <path d="M1545 3061 c-3 -6 2 -14 11 -19 10 -6 15 -16 11 -26 -5 -13 -24 -16 -109 -16 -106 0 -133 -8 -165 -48 -12 -14 -13 -14 -13 -1 0 24 -48 65 -61 52 -7 -7 -5 -14 6 -23 22 -18 20 -92 -3 -113 -10 -10 -28 -17 -39 -17 -25 0 -49 -25 -33 -35 33 -21 130 52 130 97 0 12 3 19 6 16 3 -4 22 5 41 18 31 21 47 24 127 24 102 0 139 13 144 50 5 32 -37 65 -53 41z"/>
 <path d="M1997 3052 c-37 -40 -4 -125 40 -107 17 6 16 8 -4 22 -26 18 -30 55 -8 73 14 12 12 30 -4 30 -4 0 -15 -8 -24 -18z"/>
 <path d="M2255 3060 c-3 -6 5 -14 20 -20 48 -18 41 -65 -11 -72 -32 -4 -32 -22 0 -26 28 -4 76 36 76 63 0 20 -44 65 -64 65 -8 0 -18 -5 -21 -10z"/>
 <path d="M2500 3050 c-22 -22 -26 -45 -10 -55 6 -3 14 5 19 18 5 13 19 27 31 30 12 3 19 10 15 16 -10 17 -33 13 -55 -9z"/>
 <path d="M2707 3063 c-2 -5 11 -23 30 -41 29 -28 34 -30 40 -16 4 12 -3 25 -23 41 -31 24 -40 28 -47 16z"/>
 <path d="M154 2978 c-8 -12 22 -38 42 -38 26 0 23 19 -6 33 -20 11 -32 12 -36 5z"/>
 <path d="M2361 2961 c-15 -28 -14 -53 5 -79 20 -29 36 -19 24 14 -6 14 -7 36 -4 49 7 29 -12 42 -25 16z"/>
 <path d="M1565 2963 c-35 -6 -57 -21 -49 -35 7 -11 73 -1 91 14 13 10 9 29 -5 27 -4 -1 -20 -4 -37 -6z"/>
 <path d="M927 2942 c-23 -25 -21 -34 7 -62 16 -14 31 -20 43 -16 15 6 14 10 -11 29 -25 20 -26 24 -12 36 9 7 13 17 10 22 -8 14 -19 11 -37 -9z"/>
 <path d="M1155 2951 c-3 -6 4 -15 16 -22 l22 -11 -28 -22 c-20 -16 -25 -25 -16 -30 14 -9 59 18 68 40 11 29 -46 70 -62 45z"/>
 <path d="M1358 2939 c-22 -12 -23 -52 -3 -69 21 -18 37 -3 22 21 -10 17 -9 22 6 30 9 6 15 14 12 20 -8 11 -15 11 -37 -2z"/>
 <path d="M2485 2930 c-8 -14 12 -48 36 -61 36 -19 38 5 3 38 -18 18 -36 28 -39 23z"/>
 <path d="M2736 2901 c-19 -20 -24 -31 -16 -36 17 -10 68 41 54 55 -7 7 -19 1 -38 -19z"/>
 <path d="M166 2907 c-25 -18 -13 -41 14 -27 31 17 262 13 287 -5 28 -19 43 0 19 23 -23 23 -291 31 -320 9z"/>
 <path d="M2000 2900 c-11 -11 -20 -33 -20 -50 0 -17 9 -39 20 -50 18 -18 33 -20 140 -20 137 0 185 13 195 53 8 32 -9 65 -41 77 -14 6 -81 10 -150 10 -111 0 -126 -2 -144 -20z m300 -25 c19 -23 8 -48 -28 -57 -18 -5 -81 -7 -140 -6 l-107 3 -3 38 -3 37 134 0 c105 0 137 -3 147 -15z"/>
 <path d="M2805 2897 c-9 -15 -15 -30 -12 -34 3 -4 -11 -9 -31 -11 -44 -3 -75 -27 -49 -38 39 -15 146 71 120 97 -8 8 -16 4 -28 -14z"/>
 <path d="M2433 2894 c-4 -12 2 -24 20 -40 29 -24 94 -47 109 -38 15 10 -13 34 -39 34 -15 0 -37 12 -54 31 -25 27 -30 29 -36 13z"/>
 <path d="M1286 2892 c-10 -17 5 -42 33 -56 36 -18 80 -28 92 -20 17 10 -11 34 -42 34 -18 0 -37 10 -52 26 -14 15 -27 22 -31 16z"/>
 <path d="M1456 2881 c-7 -11 28 -43 37 -34 12 11 8 22 -12 33 -11 5 -22 6 -25 1z"/>
 <path d="M1867 2884 c-4 -4 -2 -13 4 -21 9 -10 5 -13 -18 -13 -16 0 -33 -3 -37 -7 -4 -5 -13 -8 -19 -8 -7 0 -19 -15 -27 -32 -18 -39 -22 -40 -35 -10 -12 28 -31 24 -27 -6 11 -66 69 -63 85 3 6 23 11 25 44 22 46 -4 85 27 67 55 -12 20 -27 26 -37 17z"/>
 <path d="M467 2832 c-25 -25 -246 -31 -282 -8 -30 20 -44 3 -19 -25 15 -17 31 -19 139 -19 120 0 172 11 191 42 12 19 -12 28 -29 10z"/>
 <path d="M736 2824 c-12 -8 -43 -14 -76 -14 -45 0 -61 -4 -76 -21 -19 -21 -18 -21 5 -40 24 -20 52 -16 32 4 -21 21 -10 27 52 27 51 0 67 4 82 20 23 26 8 45 -19 24z"/>
 <path d="M2360 2810 c-12 -16 -34 -33 -51 -37 -35 -10 -42 -27 -12 -31 27 -4 89 40 96 68 8 32 -10 32 -33 0z"/>
 <path d="M1926 2791 c-10 -16 10 -48 34 -54 31 -8 32 7 1 37 -18 17 -31 24 -35 17z"/>
 <path d="M95 2760 c-8 -12 20 -24 35 -15 6 3 8 11 5 16 -8 12 -32 12 -40 -1z"/>
 <path d="M783 2479 c-18 -5 -35 -14 -38 -19 -3 -5 -12 -7 -20 -4 -18 7 -123 -49 -176 -94 -48 -41 -129 -147 -129 -168 0 -31 31 -26 71 11 48 43 169 102 229 112 14 2 29 8 34 13 13 13 -20 24 -41 14 -10 -4 -21 -6 -25 -6 -15 3 -108 -38 -160 -71 -46 -30 -54 -32 -54 -17 0 10 3 17 7 15 12 -8 51 43 44 56 -5 8 -4 10 4 5 7 -4 26 5 45 22 44 38 160 94 203 98 38 3 66 21 57 35 -6 10 -8 10 -51 -2z"/>
 <path d="M855 2480 c-3 -5 0 -13 8 -16 23 -8 102 0 102 11 0 14 -102 19 -110 5z"/>
 <path d="M996 2481 c-10 -15 21 -32 62 -36 22 -1 44 -5 48 -7 10 -6 64 -21 79 -23 6 -1 33 -11 60 -24 28 -12 66 -30 85 -38 59 -27 212 -123 278 -175 34 -27 68 -46 74 -42 6 4 8 3 5 -3 -10 -16 71 -89 84 -76 14 14 -122 133 -251 218 -90 59 -266 151 -306 158 -11 2 -31 9 -45 15 -14 5 -39 12 -55 15 -16 3 -36 7 -44 10 -37 13 -69 16 -74 8z"/>
 <path d="M2320 2455 c-19 -23 -1 -39 21 -19 15 13 22 15 31 6 7 -7 22 -12 33 -12 12 0 30 -9 39 -19 15 -16 15 -22 5 -40 -19 -29 -58 -31 -96 -4 -32 23 -48 18 -37 -12 8 -21 37 -31 96 -34 54 -2 67 12 64 68 -1 24 -9 40 -26 52 -33 24 -115 32 -130 14z"/>
 <path d="M2152 2448 c-19 -19 -14 -66 8 -88 21 -21 49 -18 32 3 -5 7 -12 24 -16 40 -6 26 -5 27 38 27 37 0 45 -4 49 -22 4 -13 0 -29 -9 -39 -22 -25 2 -36 27 -13 22 20 20 63 -2 91 -14 16 -110 18 -127 1z"/>
 <path d="M1700 2406 c-56 -20 -51 -46 19 -100 33 -25 66 -46 75 -46 37 0 37 61 0 133 -16 30 -38 33 -94 13z m73 -33 c3 -10 10 -33 15 -50 13 -41 5 -41 -48 1 -48 38 -51 48 -18 58 38 10 45 9 51 -9z"/>
 <path d="M781 2346 c-17 -20 -5 -23 64 -21 74 3 70 2 55 20 -16 20 -103 20 -119 1z"/>
 <path d="M935 2340 c-7 -12 7 -18 50 -24 50 -6 215 -66 300 -108 44 -22 98 -57 120 -78 22 -21 53 -41 70 -45 27 -6 165 -108 165 -122 0 -3 -31 -37 -70 -74 -38 -38 -70 -73 -70 -78 0 -4 17 -27 38 -51 l37 -42 85 47 c47 26 90 52 97 57 7 6 19 6 32 -1 27 -15 41 7 16 26 -27 19 -40 17 -88 -14 -89 -57 -176 -96 -161 -72 3 6 -2 19 -11 29 -16 18 -14 22 61 94 l78 76 -49 45 c-28 25 -56 43 -63 40 -7 -3 -11 -1 -7 4 6 11 -72 71 -92 71 -7 0 -30 15 -50 34 -78 69 -372 197 -416 180 -8 -3 -18 -1 -22 5 -8 14 -42 14 -50 1z"/>
 <path d="M2186 2311 c-4 -5 -2 -12 4 -16 5 -3 10 -14 10 -24 0 -10 7 -24 15 -31 12 -10 16 -9 22 5 12 32 -35 92 -51 66z"/>
 <path d="M2050 2296 c-16 -20 -5 -114 17 -138 10 -11 27 -18 42 -16 32 4 34 22 3 26 -13 2 -25 9 -27 15 -2 7 -6 21 -11 32 -10 28 -5 58 12 68 16 9 9 27 -10 27 -8 0 -19 -6 -26 -14z"/>
 <path d="M2710 2240 c-8 -14 -8 -26 0 -40 13 -24 30 -18 30 11 0 25 16 24 30 -1 9 -17 8 -20 -9 -20 -26 0 -34 -15 -16 -30 22 -18 48 -8 59 22 8 23 6 32 -14 53 -28 30 -65 32 -80 5z"/>
 <path d="M2192 2182 c-18 -15 -31 -30 -27 -33 11 -12 56 4 66 23 18 33 -4 38 -39 10z"/>
 <path d="M2667 2163 c-20 -23 -31 -67 -23 -95 7 -30 74 -84 88 -70 6 6 -2 19 -26 37 -53 40 -49 105 6 102 14 -1 24 -5 22 -8 -7 -12 26 -33 36 -23 6 6 -6 22 -32 42 -48 37 -50 38 -71 15z"/>
 <path d="M2203 2120 c-18 -11 -33 -17 -33 -13 0 3 -9 -2 -20 -12 -22 -20 -16 -43 7 -24 8 7 23 13 33 14 26 2 72 34 65 45 -9 14 -16 13 -52 -10z"/>
 <path d="M2297 2133 c-4 -3 -3 -11 2 -17 15 -18 16 -82 3 -99 -8 -9 -9 -18 -4 -21 20 -12 43 34 46 93 1 23 -34 57 -47 44z"/>
 <path d="M1997 2092 c-15 -17 -15 -21 12 -53 28 -32 31 -33 47 -17 21 20 12 57 -10 39 -18 -15 -41 10 -25 26 7 7 7 13 1 17 -5 3 -17 -3 -25 -12z"/>
 <path d="M2455 2093 c-32 -8 -55 -34 -55 -64 0 -34 26 -54 89 -68 54 -12 86 1 78 30 -3 10 -1 22 4 25 18 10 9 44 -16 60 -27 18 -67 24 -100 17z m98 -63 c3 -10 -2 -25 -12 -33 -14 -13 -22 -13 -63 -1 -58 18 -64 43 -15 65 26 12 37 12 58 1 15 -7 29 -21 32 -32z"/>
 <path d="M1786 2042 c-3 -5 3 -17 13 -26 11 -10 22 -13 25 -8 3 5 -3 17 -13 26 -11 10 -22 13 -25 8z"/>
 <path d="M1335 1975 c-54 -43 -80 -71 -81 -86 -1 -23 84 -119 106 -119 21 0 9 -27 -31 -65 -52 -51 -101 -123 -97 -143 2 -9 22 -29 45 -46 l42 -29 27 19 c15 10 36 24 46 30 41 24 108 98 98 108 -7 7 -24 -3 -53 -30 -53 -50 -102 -84 -120 -84 -8 0 -25 8 -38 19 l-22 18 23 39 c36 58 110 134 131 134 10 0 35 -20 56 -45 23 -28 41 -41 47 -35 11 11 -59 101 -86 108 -29 7 -22 18 47 74 36 28 65 58 65 65 0 28 -83 133 -104 133 -12 0 -57 -29 -101 -65z m145 -15 c30 -47 31 -52 16 -69 -9 -10 -13 -21 -9 -26 5 -4 2 -5 -5 -1 -8 5 -30 -6 -57 -28 -24 -20 -50 -36 -57 -36 -8 0 -33 20 -57 44 l-42 43 50 42 c28 24 48 48 44 53 -3 7 -1 8 5 4 7 -4 22 0 34 8 34 24 43 20 78 -34z"/>
 <path d="M2135 2030 c-14 -23 17 -41 67 -38 61 4 67 22 8 26 -24 2 -50 8 -56 13 -8 7 -15 6 -19 -1z"/>
 <path d="M2626 1971 c-9 -10 -16 -27 -16 -38 0 -26 47 -70 60 -57 7 7 4 16 -10 29 -24 22 -25 38 -5 55 12 10 18 10 30 0 16 -14 42 -3 27 12 -18 18 -69 18 -86 -1z"/>
 <path d="M1866 1962 c-10 -17 3 -35 21 -28 8 3 11 2 8 -4 -8 -13 126 -171 138 -163 6 3 7 1 3 -6 -10 -15 13 -43 27 -34 6 3 7 1 3 -5 -4 -6 24 -57 61 -114 77 -116 177 -313 222 -433 16 -44 35 -93 42 -110 6 -16 13 -34 13 -40 3 -21 19 -80 24 -89 3 -5 6 -24 8 -43 2 -18 7 -39 11 -46 4 -6 6 -20 5 -30 -4 -21 16 -49 29 -41 5 3 7 9 5 13 -3 4 -7 29 -11 55 -3 27 -8 53 -11 58 -3 5 -8 24 -11 41 -3 18 -12 48 -20 67 -9 19 -15 39 -14 44 5 25 -87 247 -160 385 -64 120 -121 209 -214 330 -103 136 -170 208 -179 193z"/>
 <path d="M2312 1950 c-32 -20 -33 -22 -30 -82 3 -65 19 -87 54 -74 18 7 17 9 -6 28 -19 16 -24 27 -21 56 1 21 6 41 11 45 13 15 94 14 112 -1 12 -10 18 -11 24 -1 8 13 -23 42 -37 34 -4 -3 -10 -1 -14 5 -10 16 -58 11 -93 -10z"/>
 <path d="M988 1913 c-57 -63 -111 -144 -101 -154 7 -7 29 15 67 66 33 44 64 75 74 75 29 0 81 -61 79 -92 -1 -14 -5 -24 -9 -22 -12 8 -91 -97 -81 -107 13 -13 123 122 123 150 0 18 -100 111 -119 111 -4 0 -19 -12 -33 -27z"/>
 <path d="M2432 1888 c-7 -7 -12 -19 -12 -28 0 -9 -9 -25 -20 -35 -14 -13 -17 -22 -10 -29 15 -15 57 29 62 65 5 33 -3 44 -20 27z"/>
 <path d="M2573 1858 c-16 -20 -43 -75 -43 -88 0 -6 11 -22 25 -36 32 -32 53 -22 26 12 -16 21 -18 30 -9 55 11 33 46 53 65 37 7 -5 13 -5 17 0 14 24 -63 43 -81 20z"/>
 <path d="M1735 1790 c-3 -6 1 -13 10 -16 17 -7 55 -74 55 -97 0 -8 -30 -34 -66 -58 -72 -46 -80 -46 -118 4 l-20 27 25 26 c13 14 44 40 67 56 30 21 41 33 33 41 -7 7 -18 4 -37 -8 -49 -32 -114 -97 -114 -114 0 -19 53 -87 79 -101 14 -7 36 3 101 46 81 55 82 56 77 91 -11 68 -72 136 -92 103z"/>
 <path d="M1836 1791 c-9 -14 97 -132 108 -121 5 5 -7 28 -32 58 -52 62 -69 76 -76 63z"/>
 <path d="M892 1733 c-4 -10 -14 -18 -22 -18 -16 0 -92 -124 -84 -137 9 -14 31 10 54 57 31 64 40 68 79 34 l35 -29 -23 -40 c-23 -42 -21 -70 5 -49 8 6 14 17 14 24 0 7 7 18 16 25 26 23 14 96 -22 125 -35 29 -42 30 -52 8z"/>
 <path d="M1946 1662 c-4 -7 7 -30 27 -55 102 -127 264 -419 322 -582 16 -44 33 -86 39 -94 6 -8 10 -22 8 -32 -2 -10 2 -28 9 -40 6 -12 13 -36 16 -53 12 -84 33 -130 48 -106 5 9 -7 72 -22 110 -3 8 -7 24 -8 35 -2 11 -9 34 -16 50 -6 17 -13 37 -14 45 -5 33 -69 189 -113 280 -85 171 -216 375 -233 364 -5 -3 -6 1 -4 8 7 19 -49 85 -59 70z"/>
 <path d="M795 1561 c-5 -10 36 -43 67 -54 35 -13 27 13 -11 38 -45 28 -48 29 -56 16z"/>
 <path d="M1358 1478 l-48 -52 -22 20 c-35 32 -93 64 -115 64 -27 0 -88 -88 -99 -143 -4 -25 -34 -58 -34 -39 0 11 -76 51 -107 56 -7 1 -15 5 -19 9 -23 23 -70 -61 -76 -135 -3 -32 -13 -34 -54 -14 -52 26 -89 28 -109 6 -12 -14 -15 -24 -9 -30 7 -7 16 -4 28 8 16 19 18 19 61 -1 34 -16 45 -26 45 -43 0 -33 18 -39 30 -10 8 22 12 24 37 16 15 -5 48 -16 73 -23 25 -8 46 -20 46 -28 1 -8 2 -18 3 -23 2 -15 31 16 31 34 0 27 -31 47 -83 54 -65 8 -89 22 -78 44 6 9 15 38 22 64 8 26 20 49 28 50 8 2 34 -6 57 -17 l43 -20 -2 -58 -2 -58 45 -4 c25 -1 58 -9 73 -16 23 -10 27 -17 22 -38 -3 -16 0 -35 9 -46 14 -19 15 -19 25 8 6 16 11 35 11 42 0 16 29 34 45 29 6 -2 29 -8 53 -14 42 -11 43 -12 36 -43 -3 -18 -13 -45 -21 -61 -14 -27 -16 -28 -70 -21 -40 5 -61 13 -74 28 -14 18 -19 19 -33 8 -22 -18 -46 -70 -36 -76 5 -3 17 5 27 18 16 21 20 23 38 11 11 -7 44 -17 74 -22 53 -10 56 -9 80 18 14 15 33 48 42 74 16 43 16 48 0 66 -21 26 -125 54 -151 40 -23 -12 -166 30 -164 49 1 6 2 20 3 32 1 21 1 21 19 1 9 -11 37 -27 61 -36 l45 -17 55 58 56 59 23 -22 c12 -12 43 -29 68 -39 43 -16 46 -16 65 1 22 20 10 45 -14 26 -10 -8 -26 -5 -66 14 l-53 24 26 35 c15 19 24 40 20 47 -4 6 -3 8 3 5 5 -4 23 7 38 23 16 17 34 30 40 30 13 0 85 -59 85 -70 0 -5 -12 -23 -26 -40 -18 -21 -23 -35 -17 -41 12 -12 73 59 73 83 0 19 -94 98 -116 98 -10 0 -39 -23 -66 -52z m-128 -23 c22 -14 40 -28 40 -32 0 -11 -52 -85 -83 -119 -29 -32 -29 -32 -67 -17 -35 14 -38 18 -29 40 5 13 8 27 7 31 -4 15 65 122 78 122 8 0 32 -11 54 -25z"/>
 <path d="M665 1188 c-10 -24 -1 -123 10 -121 14 4 19 113 6 126 -7 7 -12 5 -16 -5z"/>
 <path d="M803 1128 c-19 -25 -37 -128 -25 -140 13 -13 12 -14 38 75 16 58 9 93 -13 65z"/>
 <path d="M985 1051 c-6 -11 29 -51 44 -51 23 0 19 20 -8 39 -17 13 -32 17 -36 12z"/>
 <path d="M666 1012 c-8 -13 12 -78 28 -91 17 -14 96 -10 96 4 0 10 -6 12 -53 14 -22 1 -29 7 -33 31 -7 32 -29 57 -38 42z"/>
 <path d="M984 969 c-11 -12 -14 -26 -10 -41 4 -13 9 -45 12 -73 3 -27 8 -52 10 -54 2 -2 -1 -10 -7 -17 -19 -24 37 -49 110 -49 61 0 66 -2 78 -26 25 -51 21 -72 -15 -82 -29 -9 -36 -7 -61 17 -22 21 -37 27 -62 24 -42 -4 -45 -22 -4 -26 16 -2 44 -17 63 -33 18 -16 39 -29 46 -29 9 0 12 -7 9 -18 -2 -10 3 -24 11 -31 13 -11 17 -10 24 8 4 12 23 29 42 39 25 12 36 25 38 44 2 18 11 29 25 34 29 9 48 24 42 34 -8 12 -78 -9 -92 -27 -11 -14 -13 -14 -19 3 -3 10 -11 29 -17 42 -8 17 -8 28 1 42 9 15 9 21 -2 27 -7 4 -21 22 -30 40 -21 41 -34 49 -53 30 -19 -19 -10 -49 12 -41 9 4 15 1 15 -9 0 -17 -21 -27 -54 -27 -12 0 -27 -5 -33 -11 -8 -8 -14 -5 -22 10 -7 12 -8 21 -4 21 4 0 2 5 -5 12 -7 7 -12 22 -12 34 0 13 -4 25 -9 28 -11 7 -2 87 10 101 6 5 13 5 21 -3 7 -7 24 -12 38 -12 20 0 30 -8 41 -32 l14 -33 75 3 c71 3 76 2 85 -20 12 -27 31 -22 27 6 -5 38 -22 46 -96 46 -68 0 -72 1 -88 30 -11 19 -26 31 -40 31 -13 1 -40 3 -60 4 -26 1 -43 -4 -54 -16z m246 -354 c0 -8 -7 -15 -16 -15 -14 0 -14 3 -4 15 7 8 14 15 16 15 2 0 4 -7 4 -15z"/>
 <path d="M1299 812 c-8 -11 -22 -21 -32 -23 -26 -6 -22 -24 7 -27 18 -2 30 4 42 23 21 32 5 58 -17 27z"/>
 <path d="M882 778 c-7 -7 -12 -22 -12 -34 0 -12 -8 -25 -17 -28 -11 -5 -13 -10 -6 -17 17 -17 53 7 53 36 0 13 5 27 10 30 11 7 4 25 -9 25 -4 0 -12 -5 -19 -12z"/>
 <path d="M2465 748 c-4 -10 -4 -26 1 -35 4 -10 6 -36 5 -59 -2 -27 3 -45 13 -53 22 -19 30 6 18 53 -6 19 -8 43 -6 53 3 10 -2 27 -10 38 -13 19 -15 19 -21 3z"/>
 <path d="M780 705 c-16 -19 -6 -44 46 -116 31 -41 49 -58 56 -51 6 6 -6 30 -36 72 -48 65 -52 75 -36 85 11 7 4 25 -9 25 -5 0 -14 -7 -21 -15z"/>
 <path d="M1357 693 c-9 -8 33 -54 43 -48 4 2 5 -6 3 -18 -3 -13 -21 -32 -45 -46 -37 -21 -40 -26 -34 -54 5 -25 2 -35 -15 -48 -27 -20 -11 -32 22 -15 19 10 24 19 23 49 -1 20 3 37 8 37 21 0 68 42 68 61 0 20 -46 89 -60 89 -3 0 -10 -3 -13 -7z"/>
 <path d="M940 645 c-10 -12 -8 -24 11 -62 13 -27 29 -47 36 -46 13 3 7 -22 -10 -45 -8 -10 -17 -7 -43 13 -41 31 -53 17 -16 -18 21 -20 34 -25 57 -21 56 10 70 38 35 69 -27 24 -45 82 -31 99 6 7 8 16 4 19 -11 11 -30 8 -43 -8z"/>
 <path d="M2480 525 c-7 -8 -10 -31 -8 -52 3 -21 0 -45 -5 -54 -6 -9 -7 -24 -3 -34 10 -26 27 -6 30 36 2 19 7 50 11 70 7 40 -5 58 -25 34z"/>
 <path d="M1195 511 c-8 -13 61 -64 75 -56 8 5 0 17 -22 36 -36 31 -44 34 -53 20z"/>
 <path d="M2420 468 c0 -1 -3 -43 -7 -93 -11 -160 -10 -170 10 -170 13 0 24 13 34 40 18 47 22 94 8 95 -5 0 -12 28 -15 62 -3 36 -10 63 -17 66 -7 2 -13 2 -13 0z"/>
 </g>
<g id="layer6" fill="#5c5eaa" stroke="none">
 <path d="M455 3110 c-4 -6 -2 -16 3 -23 8 -9 -22 -11 -135 -9 -126 3 -147 1 -164 -14 -27 -24 -26 -95 1 -119 l20 -18 -20 -14 c-25 -17 -28 -88 -5 -120 14 -20 14 -22 -7 -25 -13 -2 -22 -7 -20 -13 1 -6 63 -10 160 -10 134 0 157 2 155 15 -1 8 12 24 30 35 24 15 33 29 35 54 4 37 -22 73 -48 69 -9 -2 -19 2 -21 7 -2 6 6 11 18 13 46 7 67 68 38 110 -13 17 -13 21 -2 16 8 -3 19 -16 26 -30 11 -25 31 -25 31 0 0 11 -72 86 -84 86 -2 0 -8 -5 -11 -10z m8 -72 c19 -10 23 -53 5 -64 -6 -4 -74 -7 -152 -7 l-141 0 -3 42 -3 42 138 -2 c76 -1 146 -6 156 -11z m17 -183 c0 -46 -34 -56 -181 -53 l-124 3 0 45 0 45 130 5 c150 6 175 -1 175 -45z"/>
 <path d="M753 3108 c-4 -7 -9 -78 -9 -158 l-2 -145 -63 -3 c-75 -4 -114 -27 -83 -49 28 -20 357 -18 374 2 23 27 -5 44 -78 47 l-66 3 3 137 c3 133 -7 187 -30 173 -5 -4 -9 -71 -9 -153 0 -117 3 -152 16 -170 15 -22 14 -22 -21 -22 -35 0 -36 0 -21 22 13 18 16 53 16 170 0 137 -7 176 -27 146z"/>
 <path d="M907 3085 c-37 -34 -46 -58 -27 -70 6 -3 13 2 16 12 4 10 21 30 38 45 21 18 28 30 21 37 -7 7 -22 0 -48 -24z"/>
 <path d="M1051 3102 c-7 -13 -25 -21 -58 -25 -32 -3 -53 -12 -65 -27 -22 -27 -23 -56 -3 -68 14 -7 13 -11 -5 -27 -11 -10 -20 -24 -20 -32 0 -8 -5 -11 -10 -8 -6 3 -13 -1 -17 -11 -8 -22 48 -74 82 -74 13 0 27 -4 30 -10 9 -14 158 -13 172 1 6 6 9 18 6 25 -3 8 0 14 6 14 6 0 10 -5 8 -12 -5 -24 33 -19 58 8 33 35 36 117 6 134 -11 5 -83 10 -160 10 -113 0 -141 3 -141 14 0 21 22 33 64 34 39 2 76 24 76 48 0 22 -18 26 -29 6z m179 -154 c0 -12 -1 -19 -3 -17 -1 2 -9 12 -16 22 -12 14 -11 17 3 17 10 0 16 -8 16 -22z m-32 -31 c5 -26 -28 -34 -140 -35 -81 -1 -109 2 -118 13 -28 34 -6 40 126 39 109 -1 129 -4 132 -17z m22 -42 c-21 -25 -32 -17 -13 9 10 13 20 20 21 15 2 -5 -2 -16 -8 -24z m-299 3 c11 -21 11 -22 -4 -9 -10 7 -17 17 -17 22 0 15 9 10 21 -13z"/>
 <path d="M1295 3107 c-5 -11 -1 -25 10 -37 15 -17 34 -20 144 -22 120 -3 126 -4 129 -24 2 -15 -4 -23 -18 -27 -12 -3 -19 -10 -15 -16 4 -7 -14 -11 -54 -11 -33 0 -63 5 -66 10 -19 30 -116 -8 -136 -54 -22 -48 57 -118 97 -85 12 10 15 10 12 -1 -2 -7 9 -18 24 -23 21 -8 32 -6 53 7 27 18 27 18 9 37 -13 13 -35 19 -72 20 -48 2 -53 4 -50 23 3 19 11 21 68 24 36 1 96 7 133 13 58 9 70 15 78 36 16 42 9 77 -21 113 -24 28 -32 32 -42 21 -11 -10 -8 -17 15 -35 29 -23 37 -72 15 -94 -19 -19 -33 -14 -15 6 25 27 21 59 -10 79 -21 14 -53 19 -142 22 -92 3 -118 7 -128 20 -11 15 -12 15 -18 -2z m47 -169 c-16 -16 -15 -51 1 -67 10 -10 9 -11 -5 -6 -21 8 -25 70 -5 78 20 9 22 8 9 -5z"/>
 <path d="M1723 3103 c-8 -21 5 -45 19 -36 7 4 18 8 23 8 6 0 10 9 10 19 0 23 -44 31 -52 9z"/>
 <path d="M1941 3096 c-15 -38 -16 -298 -2 -324 16 -30 36 -33 201 -30 122 3 145 5 143 18 -2 8 10 22 26 31 55 32 48 111 -11 127 l-33 9 25 11 c55 22 70 77 31 115 -20 20 -34 22 -164 25 -160 4 -174 -1 -183 -59 -5 -28 -1 -41 19 -64 l24 -29 -21 -17 c-15 -13 -18 -21 -10 -29 8 -8 14 -7 24 5 10 12 37 15 134 15 144 0 164 -5 172 -37 12 -48 -13 -58 -157 -61 -110 -3 -133 -1 -149 13 -25 23 -38 0 -14 -26 16 -18 16 -19 -4 -19 -11 0 -23 8 -26 18 -3 9 -5 85 -4 169 1 84 -1 155 -5 159 -3 4 -11 -5 -16 -20z m364 -63 c19 -18 19 -37 2 -55 -10 -10 -50 -13 -158 -11 l-144 1 -3 27 c-7 55 -4 56 148 54 109 -1 144 -4 155 -16z"/>
 <path d="M2294 3109 c-4 -8 6 -23 29 -42 40 -32 46 -56 25 -114 -10 -27 -10 -38 0 -53 7 -11 12 -36 12 -55 0 -30 -5 -39 -36 -57 -22 -13 -32 -24 -26 -30 22 -22 92 45 92 88 0 13 -5 35 -12 49 -9 20 -9 34 1 61 16 43 6 113 -17 121 -10 3 -27 15 -38 25 -17 15 -24 16 -30 7z"/>
 <path d="M2499 3104 c-7 -9 -23 -20 -35 -24 -24 -10 -34 -45 -34 -127 0 -49 4 -59 35 -90 33 -33 73 -42 67 -14 -1 7 2 10 8 6 6 -3 8 -10 5 -15 -10 -17 34 -30 99 -30 59 0 80 8 81 32 0 3 4 10 9 15 5 4 6 3 2 -4 -9 -17 9 -25 39 -17 29 7 53 54 61 119 6 43 -27 135 -48 135 -6 0 -17 8 -24 18 -10 14 -15 15 -25 5 -10 -11 -6 -20 24 -47 35 -32 37 -37 37 -98 0 -61 -17 -108 -41 -108 -5 0 0 9 11 20 15 15 20 33 20 73 0 73 -8 96 -41 113 -39 20 -135 28 -187 16 -36 -8 -41 -8 -32 4 12 13 6 34 -9 34 -5 0 -15 -7 -22 -16z m-13 -56 c-25 -35 -21 -129 6 -164 l23 -29 -25 16 c-22 15 -25 24 -28 89 -2 57 1 76 14 91 23 26 29 24 10 -3z m254 -11 c16 -12 20 -122 7 -145 -8 -12 -206 -15 -226 -2 -16 9 -22 129 -8 148 13 16 206 16 227 -1z"/>
 <path d="M2856 3113 c-16 -16 -1 -36 59 -84 36 -28 65 -57 65 -65 0 -7 -27 -32 -60 -56 -61 -43 -70 -57 -47 -76 16 -13 45 0 113 52 26 20 54 36 63 36 9 0 42 -20 74 -45 39 -29 67 -43 85 -42 43 4 36 24 -25 68 -55 40 -72 57 -73 69 0 3 34 30 75 60 46 32 72 57 66 63 -8 8 -151 -89 -167 -114 -3 -6 4 -25 17 -42 l23 -32 -28 23 c-39 30 -54 28 -117 -19 -57 -43 -89 -63 -89 -55 0 2 15 14 33 25 52 32 87 68 87 90 0 12 -23 36 -65 67 -36 26 -65 53 -65 60 0 15 -15 26 -24 17z m334 -250 c0 -8 -38 17 -51 33 -9 11 -2 9 19 -6 17 -13 32 -25 32 -27z"/>
 <path d="M2897 3114 c-14 -14 -7 -23 52 -68 101 -78 99 -78 186 -12 41 31 75 60 75 65 0 21 -17 19 -44 -8 -34 -32 -104 -81 -116 -81 -13 0 -114 71 -130 92 -9 10 -19 16 -23 12z"/>
 <path d="M516 2965 c-9 -21 -16 -39 -16 -40 0 -1 7 -19 16 -40 11 -27 18 -35 26 -27 8 8 7 19 -1 40 -9 22 -9 35 0 56 9 19 9 30 1 38 -8 8 -15 0 -26 -27z"/>
 <path d="M1764 2905 c-4 -9 1 -24 10 -34 15 -16 15 -19 1 -31 -9 -7 -14 -22 -13 -34 2 -13 -3 -21 -12 -21 -9 0 -14 8 -12 21 1 12 -4 27 -13 34 -14 12 -14 15 1 31 9 10 13 23 9 29 -5 8 -15 3 -31 -16 -29 -36 -29 -42 -2 -72 13 -13 23 -31 23 -40 0 -22 50 -24 50 -2 1 22 18 46 38 53 10 4 15 11 12 17 -9 14 29 12 43 -2 9 -9 15 -9 24 0 20 20 -14 45 -61 45 -27 0 -41 5 -41 13 0 20 -19 27 -26 9z"/>
 <path d="M521 2821 c-7 -11 -25 -28 -42 -37 -44 -22 -24 -39 23 -20 21 9 38 24 41 38 9 31 -8 45 -22 19z"/>
 <path d="M810 2473 c-19 -7 -44 -12 -55 -12 -27 -1 -153 -66 -185 -95 -14 -13 -33 -26 -42 -29 -10 -4 -18 -13 -18 -21 0 -9 -11 -23 -24 -31 -26 -17 -43 -62 -29 -76 5 -5 35 10 66 32 32 23 86 51 120 63 34 12 67 25 72 28 6 4 17 3 25 -2 7 -4 24 -4 37 1 32 12 95 11 128 -1 16 -6 33 -6 43 -1 12 6 24 5 36 -5 10 -7 23 -11 27 -8 17 10 201 -58 319 -119 30 -16 66 -41 80 -56 14 -16 41 -34 61 -40 20 -6 49 -25 65 -41 16 -16 34 -30 39 -30 6 0 27 -16 48 -35 l39 -36 -78 -74 c-72 -69 -76 -76 -62 -92 8 -10 18 -26 21 -35 12 -34 60 -18 174 55 24 15 48 27 54 27 13 0 159 -148 159 -162 0 -5 14 -23 30 -40 16 -16 30 -36 30 -43 0 -8 6 -18 13 -22 31 -20 143 -201 218 -353 79 -159 162 -401 177 -518 8 -59 25 -74 30 -26 4 40 -60 288 -79 308 -5 6 -9 16 -9 24 0 8 -7 30 -16 50 -125 291 -250 494 -437 710 -82 94 -114 115 -143 91 -18 -15 -30 -22 -108 -63 -46 -24 -58 -27 -71 -16 -8 7 -15 18 -15 25 0 15 49 68 95 103 51 39 44 63 -38 132 -40 33 -92 70 -117 81 -25 12 -57 33 -72 47 -31 29 -47 38 -147 87 -87 43 -246 97 -275 94 -12 -1 -30 2 -41 7 -26 11 -194 12 -220 0 -11 -5 -27 -8 -36 -7 -22 2 -109 -33 -161 -65 l-43 -26 49 50 c199 206 570 185 941 -54 247 -158 510 -436 678 -716 52 -87 147 -280 172 -348 44 -125 77 -232 91 -300 9 -41 18 -79 22 -84 3 -6 7 -87 10 -180 3 -150 2 -169 -11 -152 -7 10 -16 15 -18 10 -9 -17 6 -189 16 -189 16 0 38 56 37 92 -1 18 2 34 6 37 10 6 7 266 -3 289 -4 9 -5 23 -2 31 3 7 0 25 -8 39 -7 13 -9 30 -5 37 5 7 4 20 -1 29 -4 9 -18 56 -30 105 -46 193 -168 466 -291 653 -38 57 -68 108 -68 113 0 6 -7 13 -15 16 -8 4 -15 12 -15 20 0 7 -6 17 -13 21 -18 10 -127 140 -127 150 0 5 -36 42 -81 83 -45 41 -96 90 -114 108 -19 17 -36 32 -40 32 -3 0 -33 22 -68 49 -74 58 -222 150 -292 180 -27 12 -59 26 -70 31 -123 57 -355 90 -435 63z"/>
 <path d="M2327 2442 c-25 -28 -20 -57 14 -86 24 -20 39 -25 72 -23 37 3 42 6 51 35 8 28 6 36 -15 58 -14 15 -31 23 -41 21 -10 -3 -21 -1 -24 4 -9 15 -40 10 -57 -9z m107 -62 c-7 -32 -4 -31 -47 -18 -31 10 -37 16 -37 39 0 34 24 41 63 19 22 -12 26 -20 21 -40z"/>
 <path d="M2160 2435 c-7 -8 -8 -20 -4 -27 5 -7 9 -20 9 -28 0 -15 40 -40 66 -40 8 0 25 11 38 23 18 20 20 29 12 50 -12 31 -29 43 -43 29 -6 -6 -6 -12 1 -16 6 -4 11 -16 11 -27 0 -14 -7 -19 -28 -19 -37 0 -54 17 -42 41 13 23 -3 34 -20 14z"/>
 <path d="M1711 2397 c-19 -7 -36 -17 -38 -24 -4 -11 101 -103 117 -103 22 0 27 27 13 70 -25 74 -32 78 -92 57z m49 -21 c0 -2 7 -20 16 -41 17 -41 13 -40 -43 4 -28 22 -30 27 -15 33 19 7 42 10 42 4z"/>
 <path d="M2115 2311 c-47 -10 -35 -26 23 -29 35 -2 52 -7 52 -16 0 -8 3 -27 6 -44 6 -29 4 -31 -32 -37 -22 -4 -46 -7 -54 -8 -11 -2 -18 15 -25 58 -6 33 -15 60 -20 60 -16 0 -17 -57 -3 -100 10 -31 19 -41 38 -43 51 -6 76 -1 100 17 21 16 25 26 23 66 -2 75 -29 93 -108 76z"/>
 <path d="M2724 2236 c-12 -31 0 -61 27 -64 40 -5 54 20 28 52 -23 29 -47 34 -55 12z"/>
 <path d="M2666 2138 c-15 -23 -16 -63 -3 -85 4 -7 20 -21 36 -32 24 -18 31 -19 40 -7 10 11 4 18 -26 32 -31 15 -37 24 -35 44 4 39 17 44 51 19 22 -16 28 -26 20 -35 -6 -8 -7 -14 0 -18 5 -4 12 -2 16 4 3 5 3 10 -1 10 -3 0 -1 7 6 15 10 13 8 19 -12 39 -37 37 -73 43 -92 14z"/>
 <path d="M2220 2115 c-14 -8 -32 -14 -41 -15 -25 0 -52 -36 -45 -58 10 -29 34 -48 47 -35 8 8 7 13 0 17 -37 23 30 76 95 76 28 0 30 -2 26 -34 -4 -34 -6 -35 -51 -38 -56 -4 -57 -20 -1 -32 35 -8 44 -6 64 13 20 19 22 28 16 57 -4 19 -6 34 -3 34 3 0 0 7 -7 15 -16 19 -67 19 -100 0z"/>
 <path d="M2006 2091 c-15 -16 -14 -19 7 -39 18 -17 26 -19 35 -10 18 18 15 46 -7 57 -14 8 -22 6 -35 -8z"/>
 <path d="M2450 2073 c-44 -23 -51 -55 -16 -78 13 -9 35 -17 48 -19 13 -1 29 -6 36 -9 6 -4 20 1 32 13 59 59 -21 133 -100 93z m81 -23 c13 0 11 -58 -3 -62 -16 -6 -83 30 -83 44 0 13 43 28 63 22 8 -2 18 -4 23 -4z"/>
 <path d="M1395 2011 c-16 -9 -56 -41 -88 -71 l-58 -54 53 -53 c29 -29 58 -53 66 -53 7 0 33 16 56 35 24 19 47 35 53 35 5 0 20 14 32 31 l23 31 -38 56 c-22 30 -46 56 -54 57 -8 2 -28 -5 -45 -14z m76 -52 c28 -44 31 -53 18 -63 -8 -6 -36 -28 -61 -48 -25 -21 -52 -38 -60 -38 -18 0 -81 65 -77 79 3 9 137 119 145 121 1 0 17 -23 35 -51z"/>
 <path d="M2637 1962 c-23 -25 -21 -34 8 -62 18 -17 28 -21 36 -13 8 8 5 14 -10 22 -31 17 -27 43 7 41 43 -3 48 0 28 15 -26 20 -49 19 -69 -3z"/>
 <path d="M2345 1952 c-35 -7 -57 -34 -52 -65 2 -15 0 -30 -4 -33 -23 -14 40 -64 80 -64 28 1 59 34 75 80 14 42 14 46 -3 64 -19 19 -58 26 -96 18z m74 -37 c2 -3 0 -22 -5 -43 -8 -34 -12 -37 -47 -40 -42 -4 -75 14 -57 32 5 5 10 20 10 32 0 13 8 25 18 27 18 6 72 0 81 -8z"/>
 <path d="M986 1890 c-31 -34 -106 -135 -106 -144 0 -3 11 -11 25 -16 14 -5 24 -15 23 -22 -2 -8 5 -12 17 -10 11 2 17 1 13 -4 -11 -10 11 -34 32 -34 10 0 36 24 59 54 23 30 48 57 55 59 8 3 17 18 20 33 6 23 1 34 -35 70 -47 48 -69 51 -103 14z m93 -34 c28 -30 24 -42 -38 -115 l-37 -44 -42 28 c-23 15 -42 31 -42 35 0 4 23 37 50 74 55 72 61 73 109 22z"/>
 <path d="M2578 1848 c-8 -7 -20 -28 -26 -46 -10 -28 -8 -35 12 -59 14 -16 27 -23 35 -19 9 6 7 13 -7 27 -31 28 -16 73 24 76 16 0 33 2 38 2 5 1 3 8 -4 16 -15 18 -51 19 -72 3z"/>
 <path d="M1713 1777 c-4 -6 -26 -26 -48 -42 -43 -32 -85 -74 -85 -85 0 -16 66 -90 80 -90 21 0 150 87 157 107 3 8 -6 40 -20 69 -22 44 -32 54 -51 54 -14 0 -29 -6 -33 -13z m60 -48 c27 -48 21 -61 -43 -103 -64 -41 -80 -41 -106 -1 -16 25 -16 27 7 51 23 25 107 84 118 84 3 0 14 -14 24 -31z"/>
 <path d="M1333 1696 c-32 -34 -67 -79 -78 -99 l-20 -38 25 -20 c42 -33 63 -33 111 -1 24 17 55 42 69 57 14 15 35 31 48 36 12 5 22 15 22 24 0 23 -75 100 -99 102 -13 1 -41 -20 -78 -61z m116 -63 c-44 -45 -115 -93 -138 -93 -10 0 -24 7 -31 15 -9 11 -8 20 9 44 12 16 21 34 21 39 0 6 23 31 52 57 l52 47 34 -37 34 -37 -33 -35z"/>
 <path d="M847 1678 c-25 -34 -57 -95 -57 -109 0 -12 94 -66 107 -62 7 3 27 34 44 71 l32 66 -39 33 c-21 18 -44 33 -51 33 -7 0 -23 -15 -36 -32z m73 -19 l25 -21 -26 -47 c-29 -52 -44 -59 -76 -33 l-22 17 26 53 c15 28 31 52 37 52 6 -1 22 -10 36 -21z"/>
 <path d="M1390 1505 c-5 -13 -21 -31 -35 -41 -14 -9 -25 -21 -25 -26 0 -5 -11 -24 -25 -42 -24 -31 -24 -34 -7 -49 9 -9 37 -25 61 -35 42 -19 45 -19 74 -3 17 9 35 26 41 36 6 11 21 33 34 48 12 16 22 34 22 41 0 13 -83 79 -113 89 -13 5 -20 0 -27 -18z m79 -43 c40 -33 37 -44 -28 -106 l-40 -39 -37 20 c-21 11 -39 24 -41 29 -4 13 85 124 100 124 7 0 28 -13 46 -28z"/>
 <path d="M1148 1483 c-25 -31 -60 -96 -73 -140 -14 -48 -12 -52 46 -76 l37 -15 39 41 c22 23 52 61 67 84 33 49 29 58 -36 99 -45 29 -60 30 -80 7z m76 -34 c20 -12 36 -23 36 -26 0 -13 -47 -81 -74 -106 -23 -22 -35 -27 -58 -21 -28 6 -29 8 -23 42 9 47 54 132 71 132 7 0 29 -9 48 -21z"/>
 <path d="M883 1368 c-11 -17 -34 -84 -32 -95 1 -4 -1 -16 -6 -26 -4 -10 -2 -23 5 -32 14 -17 72 -35 112 -35 29 0 54 -30 39 -46 -5 -5 -11 -26 -14 -46 -5 -32 -2 -41 20 -58 39 -30 70 -35 93 -15 11 10 20 24 20 31 0 23 20 26 38 5 11 -13 35 -22 73 -26 53 -7 57 -5 77 20 12 15 27 46 33 68 13 50 2 63 -69 82 -47 12 -54 12 -74 -4 -21 -17 -23 -17 -55 5 -19 13 -54 26 -79 30 l-44 6 3 51 2 52 -45 22 c-51 25 -83 29 -97 11z m84 -35 c21 -10 39 -18 41 -19 1 -1 -2 -12 -7 -25 -5 -13 -12 -37 -16 -53 -6 -27 -8 -28 -52 -23 -63 7 -76 26 -52 74 11 21 19 43 19 50 0 18 22 16 67 -4z m138 -147 c32 -14 34 -17 28 -47 -14 -71 -62 -115 -100 -91 -13 8 -19 78 -9 105 3 9 8 24 11 32 6 19 26 19 70 1z m193 -28 c20 -7 23 -12 17 -40 -15 -66 -32 -76 -102 -62 -30 6 -30 6 -22 51 14 74 28 81 107 51z"/>
 <path d="M681 1236 c-18 -19 -21 -29 -14 -55 12 -46 28 -43 31 7 2 23 6 42 10 42 3 0 26 -7 49 -16 31 -12 42 -21 39 -33 -3 -9 -10 -42 -15 -75 -11 -58 -8 -81 9 -71 10 6 35 115 30 130 -1 6 -3 21 -4 34 -1 18 -11 28 -46 42 -59 23 -63 23 -89 -5z"/>
 <path d="M677 1113 c-24 -40 -6 -155 29 -183 22 -19 38 -1 18 21 -11 12 -18 42 -22 89 -4 65 -14 92 -25 73z"/>
 <path d="M776 993 c-3 -3 -6 -16 -6 -28 0 -11 -5 -26 -11 -32 -17 -17 5 -24 28 -8 14 10 19 22 15 40 -5 27 -15 38 -26 28z"/>
 <path d="M1007 972 c-18 -20 -25 -91 -12 -112 5 -8 8 -22 7 -31 -1 -8 6 -23 17 -33 28 -26 105 -10 109 22 5 33 18 27 35 -17 18 -43 44 -55 79 -37 13 7 29 11 35 9 6 -2 21 10 33 27 l23 32 -20 36 -19 37 -75 0 c-73 -1 -75 0 -89 30 -11 23 -24 31 -50 36 -20 3 -41 8 -47 12 -5 4 -17 -1 -26 -11z m91 -38 c13 -4 17 -70 6 -98 -8 -21 -63 -21 -78 -1 -6 9 -9 38 -8 65 4 49 4 49 35 44 18 -3 38 -7 45 -10z m190 -87 c5 -40 -20 -64 -61 -59 -28 3 -34 9 -44 40 -6 20 -9 40 -6 45 2 4 28 7 56 5 49 -3 52 -5 55 -31z"/>
 <path d="M933 783 c-26 -3 -70 -33 -49 -33 4 0 2 -9 -4 -20 -8 -15 -17 -18 -38 -14 -20 4 -33 0 -46 -15 -19 -21 -19 -22 20 -76 21 -31 45 -66 51 -79 7 -13 31 -36 53 -51 35 -24 44 -26 65 -17 28 13 35 59 11 68 -11 4 -46 71 -46 88 0 2 27 7 60 11 57 7 62 6 86 -20 22 -23 30 -26 62 -20 64 11 71 38 32 115 -17 35 -17 35 -86 35 -49 0 -77 5 -96 18 -15 9 -31 16 -35 15 -4 0 -22 -3 -40 -5z m82 -49 c15 -11 34 -13 80 -9 l60 7 18 -36 c23 -49 22 -53 -14 -61 -25 -6 -36 -2 -59 20 -26 25 -31 26 -88 19 -40 -4 -67 -13 -78 -25 -16 -18 -15 -22 13 -79 16 -34 27 -63 22 -65 -17 -11 -45 13 -101 89 l-60 81 35 6 c45 7 70 27 64 51 -4 16 1 18 41 18 26 0 56 -7 67 -16z"/>
 <path d="M1300 677 c-35 -17 -46 -28 -48 -49 -3 -27 -23 -39 -67 -43 -16 -1 -19 -8 -17 -31 4 -31 18 -54 34 -54 6 0 23 -11 40 -25 36 -30 48 -31 82 -4 22 17 26 27 21 50 -6 24 -2 31 33 53 49 31 51 62 6 100 -18 14 -33 26 -35 26 -2 -1 -24 -11 -49 -23z m83 -41 c16 -23 15 -24 -13 -36 -42 -18 -63 -45 -56 -73 7 -29 -14 -51 -42 -43 -19 6 -79 64 -71 69 2 1 21 10 42 20 28 13 37 23 37 41 0 48 76 64 103 22z"/>
 </g>
<g id="layer7" fill="#3c469e" stroke="none">
 <path d="M94 3109 c-10 -17 13 -36 27 -22 12 12 4 33 -11 33 -5 0 -12 -5 -16 -11z"/>
 <path d="M434 3110 c-6 -6 -67 -12 -137 -13 -101 -2 -130 -5 -142 -18 -24 -24 -30 -91 -12 -128 9 -18 11 -33 6 -37 -18 -11 2 -24 21 -14 20 11 236 12 285 1 26 -5 30 -11 33 -43 5 -57 -26 -68 -187 -68 l-131 0 -6 28 c-11 52 -14 56 -26 44 -8 -8 -9 -21 -1 -46 10 -33 10 -35 -16 -38 -14 -2 -26 -7 -26 -13 0 -6 68 -11 177 -13 161 -2 182 -1 217 17 51 27 68 66 47 115 -9 21 -20 34 -28 31 -7 -3 -20 0 -28 5 -13 9 -13 11 0 19 9 6 19 6 27 -1 10 -8 17 -2 29 27 19 46 6 87 -35 113 -14 9 -30 22 -34 29 -10 16 -20 16 -33 3z m46 -70 c12 -19 12 -51 0 -70 -8 -12 -37 -15 -162 -15 l-153 0 -3 39 c-6 69 -9 68 158 64 121 -2 153 -6 160 -18z"/>
 <path d="M763 3104 c-3 -9 -1 -25 5 -35 7 -11 12 -64 12 -135 0 -63 5 -124 10 -135 9 -15 7 -19 -5 -19 -9 0 -13 5 -10 10 3 6 3 15 -1 22 -5 8 -10 6 -19 -5 -8 -11 -31 -17 -81 -19 -53 -2 -69 -6 -69 -18 0 -13 27 -15 180 -15 153 0 180 2 180 15 0 12 -16 16 -72 18 -87 3 -82 -8 -86 187 -2 124 -4 140 -20 143 -9 2 -20 -4 -24 -14z"/>
 <path d="M915 3080 c-36 -36 -38 -46 -10 -40 6 1 6 -2 2 -7 -5 -4 -14 -8 -20 -8 -14 0 -22 -89 -11 -114 4 -9 7 -19 6 -22 -1 -4 10 -17 24 -30 24 -23 32 -24 159 -24 128 0 134 1 160 25 22 21 25 31 23 75 l-3 50 -150 3 c-82 2 -154 7 -158 12 -5 4 -6 17 -3 28 7 21 33 32 77 32 32 0 68 35 52 51 -8 8 -13 8 -17 0 -9 -14 -53 -14 -61 -1 -11 18 -29 10 -70 -30z m0 -99 c3 -5 1 -12 -5 -16 -5 -3 -10 1 -10 9 0 18 6 21 15 7z m289 -46 c8 -23 -4 -46 -31 -56 -42 -16 -205 -11 -231 7 -21 15 -29 44 -15 57 3 4 66 7 139 7 108 0 133 -3 138 -15z"/>
 <path d="M1555 3109 c-4 -6 -52 -9 -128 -8 -97 1 -122 -1 -122 -12 0 -11 29 -15 125 -20 146 -7 162 -12 158 -48 -3 -26 -4 -26 -109 -33 -131 -8 -199 -37 -170 -72 7 -9 7 -16 -2 -25 -27 -28 73 -69 144 -59 41 5 29 33 -16 36 -71 4 -85 10 -85 37 0 32 46 45 163 45 74 0 90 3 107 20 32 32 26 80 -14 118 -38 35 -42 37 -51 21z"/>
 <path d="M1733 3108 c-4 -7 -9 -60 -11 -118 -3 -79 -8 -110 -20 -123 -16 -17 -15 -20 1 -32 9 -6 17 -21 17 -32 0 -11 7 -26 15 -33 20 -17 45 3 45 36 0 22 4 24 44 24 26 0 48 6 56 15 15 18 5 23 -55 27 l-40 3 -5 110 c-5 106 -11 135 -30 135 -5 0 -12 -6 -17 -12z m33 -249 c10 -17 -13 -36 -27 -22 -12 12 -4 33 11 33 5 0 12 -5 16 -11z"/>
 <path d="M1953 3108 c-12 -19 -14 -303 -3 -333 l10 -25 165 0 c170 0 189 4 233 43 25 23 30 75 10 107 -10 15 -10 26 0 53 18 50 15 82 -12 108 -64 63 -64 63 -81 49 -12 -10 -48 -13 -128 -11 -83 1 -119 -2 -139 -13 -26 -14 -28 -13 -28 4 0 24 -16 34 -27 18z m358 -65 c6 -6 12 -23 12 -38 0 -45 -14 -50 -168 -53 -137 -3 -144 -3 -155 18 -6 11 -15 18 -21 15 -5 -4 -9 6 -9 20 0 14 4 24 9 20 6 -3 15 4 21 15 11 21 18 21 155 18 93 -2 148 -7 156 -15z m19 -113 c0 -5 -4 -10 -10 -10 -5 0 -10 5 -10 10 0 6 5 10 10 10 6 0 10 -4 10 -10z m-51 -26 c37 -8 54 -33 45 -68 -9 -38 -47 -47 -189 -44 l-130 3 -3 49 c-2 32 1 52 10 57 15 10 221 12 267 3z"/>
 <path d="M2524 3107 c-3 -9 -13 -17 -21 -17 -7 0 -25 -12 -38 -26 -22 -23 -25 -36 -25 -99 0 -61 3 -75 23 -93 35 -33 72 -42 171 -42 110 0 151 12 171 51 29 54 10 199 -25 199 -5 0 -18 10 -30 22 -16 17 -23 19 -32 10 -16 -16 -160 -16 -176 0 -9 9 -13 7 -18 -5z m181 -47 c22 -5 46 -17 53 -27 7 -10 18 -17 23 -15 5 1 9 -25 9 -58 0 -33 -3 -59 -7 -58 -5 1 -20 -6 -35 -16 -23 -15 -44 -17 -129 -14 -86 2 -103 6 -115 22 -15 21 -19 122 -6 143 17 27 135 40 207 23z"/>
 <path d="M2875 3106 c-24 -17 -17 -27 59 -81 40 -28 55 -46 54 -59 -2 -11 -28 -39 -58 -62 -53 -40 -67 -63 -44 -71 6 -2 42 19 80 47 38 27 76 50 85 50 10 0 39 -17 66 -38 71 -56 88 -65 102 -48 10 12 3 21 -35 47 -54 37 -84 65 -84 78 0 5 36 35 80 67 44 32 79 62 77 68 -5 15 -58 15 -64 1 -2 -7 -33 -33 -69 -60 -60 -44 -68 -47 -92 -36 -31 15 -101 68 -122 93 -14 16 -18 17 -35 4z m213 -138 c-5 -14 -68 -21 -68 -7 0 4 12 10 28 12 15 2 31 5 35 6 5 0 7 -5 5 -11z"/>
 <path d="M805 2461 c-16 -3 -30 -10 -30 -16 0 -12 278 -13 285 0 10 20 -179 32 -255 16z"/>
 <path d="M667 2416 c-98 -50 -201 -146 -180 -167 7 -7 27 0 60 20 28 17 53 31 55 31 3 0 23 7 44 16 46 19 104 28 194 28 69 0 165 -9 190 -17 8 -3 51 -18 94 -32 70 -24 175 -71 246 -110 14 -8 34 -25 45 -38 11 -14 36 -30 55 -36 45 -14 190 -128 190 -149 0 -9 -30 -44 -66 -78 -58 -54 -66 -66 -60 -88 11 -46 41 -52 103 -20 106 56 126 71 117 86 -3 5 -17 1 -32 -8 -137 -90 -210 -91 -127 -1 20 20 39 37 44 37 5 0 21 14 35 31 19 22 23 35 17 47 -23 43 -189 172 -220 172 -11 0 -25 8 -30 19 -15 27 -145 102 -241 138 -84 32 -152 53 -163 52 -7 -1 -19 0 -27 4 -93 35 -232 35 -320 0 -8 -3 -20 -5 -27 -4 -6 1 -36 -10 -65 -23 l-53 -25 35 30 c19 17 44 35 55 40 11 5 27 13 35 18 8 5 32 16 53 25 21 9 35 21 32 26 -9 15 -13 13 -88 -24z"/>
 <path d="M1085 2440 c-6 -10 60 -42 79 -38 6 1 26 -6 44 -16 19 -9 36 -15 39 -12 3 3 18 -2 32 -12 14 -10 49 -28 76 -41 57 -27 235 -141 262 -168 10 -10 38 -35 63 -55 93 -74 242 -234 348 -375 34 -45 62 -84 62 -86 0 -3 18 -31 39 -63 43 -65 171 -308 171 -325 0 -6 9 -23 20 -39 11 -15 17 -30 14 -33 -3 -3 3 -20 12 -39 10 -18 17 -39 16 -45 -2 -7 5 -27 15 -45 9 -18 16 -40 15 -49 -4 -24 27 -91 39 -83 11 6 7 34 -13 81 -6 15 -11 31 -10 35 1 4 -6 24 -15 45 -9 21 -16 42 -15 46 1 4 -6 22 -15 40 -9 18 -16 35 -15 40 3 12 -113 248 -165 334 -127 213 -355 478 -531 618 -127 100 -335 228 -377 230 -5 1 -24 9 -42 18 -18 10 -36 16 -40 15 -4 -1 -25 6 -47 15 -44 20 -53 21 -61 7z"/>
 <path d="M2170 2434 c-10 -11 -11 -23 -4 -42 12 -33 30 -30 26 3 -3 21 1 25 22 25 19 0 25 -6 28 -25 4 -33 22 -37 26 -7 7 49 -67 84 -98 46z"/>
 <path d="M2337 2443 c-12 -11 -8 -70 6 -80 6 -6 28 -15 46 -22 40 -13 55 -4 66 41 6 23 2 30 -27 48 -32 20 -78 26 -91 13z m66 -34 c16 -7 23 -17 20 -29 -4 -15 -9 -16 -34 -7 -17 7 -29 19 -29 29 0 21 10 22 43 7z"/>
 <path d="M1714 2390 c-38 -15 -35 -27 18 -69 72 -58 90 -45 53 42 -16 38 -30 44 -71 27z m48 -45 c3 -14 4 -25 3 -25 -1 0 -12 11 -25 25 -23 24 -23 25 -3 25 14 0 22 -8 25 -25z"/>
 <path d="M2065 2290 c-10 -17 5 -103 21 -121 12 -13 23 -15 62 -8 65 13 75 25 65 83 -10 60 -28 61 -27 2 0 -43 0 -44 -43 -53 -33 -8 -43 -7 -43 2 0 7 -3 26 -6 43 -6 28 -4 31 22 34 16 2 29 8 29 13 0 14 -72 18 -80 5z"/>
 <path d="M2734 2225 c-9 -21 3 -45 21 -45 21 0 30 27 15 45 -16 19 -29 19 -36 0z"/>
 <path d="M2663 2113 c-15 -37 -15 -37 16 -65 41 -37 58 -35 78 8 l18 36 -35 29 c-46 38 -58 36 -77 -8z m67 -33 c0 -26 -12 -32 -31 -14 -14 13 -16 21 -8 36 8 15 13 17 25 7 8 -6 14 -19 14 -29z"/>
 <path d="M2210 2101 c-13 -9 -30 -16 -39 -16 -24 0 -27 -61 -4 -73 28 -15 148 0 148 18 0 14 -21 15 -110 7 -14 -1 -20 4 -20 18 0 12 6 19 14 17 7 -1 19 3 27 9 19 16 66 20 80 8 8 -7 14 -7 18 0 17 26 -77 36 -114 12z"/>
 <path d="M2015 2080 c-10 -16 16 -43 28 -31 11 11 2 41 -12 41 -5 0 -13 -5 -16 -10z"/>
 <path d="M2460 2067 c-27 -9 -35 -17 -35 -36 0 -20 9 -28 49 -44 58 -25 81 -16 81 32 1 49 -36 68 -95 48z m80 -34 c0 -5 -5 -15 -10 -23 -8 -12 -13 -13 -30 -2 -11 6 -27 12 -35 12 -8 0 -15 5 -15 10 0 6 20 10 45 10 25 0 45 -3 45 -7z"/>
 <path d="M1352 1964 c-45 -35 -82 -70 -82 -77 0 -19 83 -96 101 -94 18 3 106 66 133 96 18 20 18 21 -13 70 -50 78 -47 77 -139 5z m114 -14 c15 -22 25 -42 23 -43 -51 -37 -97 -74 -106 -85 -10 -12 -17 -8 -47 22 -20 19 -36 38 -36 40 0 8 120 106 130 106 6 0 22 -18 36 -40z"/>
 <path d="M2642 1958 c-17 -17 -15 -32 8 -53 19 -17 21 -17 40 0 28 25 22 59 -10 63 -14 2 -31 -3 -38 -10z"/>
 <path d="M2330 1937 c-34 -17 -51 -95 -24 -114 28 -20 88 -16 109 7 20 22 27 100 10 100 -5 0 -10 -6 -10 -13 0 -6 -4 -27 -9 -44 -7 -30 -11 -33 -47 -33 -42 0 -47 9 -30 54 7 16 19 26 36 28 14 2 27 8 28 13 3 15 -35 17 -63 2z"/>
 <path d="M986 1879 c-56 -65 -88 -117 -81 -128 3 -6 27 -25 52 -43 l46 -31 58 64 c32 35 57 72 55 81 -2 19 -51 74 -78 89 -13 7 -24 0 -52 -32z m79 -22 l36 -33 -50 -54 -49 -55 -36 19 c-20 11 -36 23 -36 27 0 9 89 129 95 129 2 0 20 -15 40 -33z"/>
 <path d="M1787 1864 c-4 -4 18 -32 47 -63 98 -102 216 -258 298 -396 33 -55 110 -205 143 -280 34 -75 45 -104 45 -112 0 -6 8 -25 17 -44 9 -18 18 -43 19 -54 1 -11 8 -33 15 -50 7 -16 12 -34 11 -40 -3 -19 23 -93 33 -94 17 -3 17 33 -1 74 -10 22 -17 48 -15 57 1 9 -6 32 -15 50 -10 18 -17 38 -16 44 1 6 -5 24 -13 40 -8 16 -15 37 -15 46 0 9 -4 19 -9 22 -5 3 -12 18 -16 33 -8 33 -120 260 -139 282 -7 9 -16 23 -20 31 -3 8 -15 29 -26 45 -11 17 -23 37 -27 45 -13 28 -180 245 -238 308 -56 61 -66 68 -78 56z"/>
 <path d="M2576 1830 c-23 -26 -25 -59 -7 -82 24 -28 43 -19 70 33 16 30 19 45 11 53 -16 16 -59 14 -74 -4z m44 -10 c0 -16 -23 -60 -32 -60 -11 0 -10 13 2 44 9 25 30 36 30 16z"/>
 <path d="M1704 1754 c-44 -29 -114 -94 -114 -106 0 -13 61 -78 74 -78 6 0 41 20 78 45 73 49 76 57 45 128 -20 44 -32 45 -83 11z m67 -39 l16 -35 -53 -40 c-29 -22 -59 -40 -65 -40 -16 0 -49 30 -49 45 0 12 51 65 64 65 4 0 19 9 33 20 33 26 35 26 54 -15z"/>
 <path d="M1352 1705 c-34 -31 -62 -62 -62 -67 0 -5 -10 -23 -21 -40 l-21 -29 22 -24 c12 -13 31 -22 44 -21 30 3 94 47 145 99 l44 45 -45 47 -44 47 -62 -57z m96 -17 c19 -32 14 -40 -71 -105 -58 -45 -59 -45 -78 -26 -20 19 -20 20 1 45 11 14 20 29 20 32 0 14 84 87 97 84 8 -2 22 -15 31 -30z"/>
 <path d="M847 1663 c-49 -81 -50 -90 -12 -119 19 -14 41 -24 50 -22 9 2 31 29 48 61 l32 58 -35 29 c-19 16 -41 30 -47 30 -7 0 -23 -17 -36 -37z m68 -13 c17 -18 16 -21 -6 -57 -12 -21 -24 -40 -26 -42 -2 -2 -14 1 -27 9 -27 14 -24 33 10 85 20 30 26 31 49 5z"/>
 <path d="M1383 1478 c-50 -55 -85 -107 -80 -121 2 -7 26 -23 52 -36 l47 -23 50 48 c77 76 78 82 28 126 -23 21 -48 38 -54 38 -7 0 -26 -15 -43 -32z m74 -20 c18 -13 33 -25 33 -28 0 -3 -19 -27 -43 -54 -45 -51 -58 -54 -101 -21 -18 14 -17 17 23 70 23 30 45 55 48 55 4 0 22 -10 40 -22z"/>
 <path d="M1141 1461 c-25 -35 -52 -89 -50 -98 1 -4 -1 -16 -5 -25 -11 -25 -3 -53 16 -53 9 0 20 -4 24 -8 23 -23 86 26 133 106 26 43 21 56 -33 85 -45 24 -64 23 -85 -7z m108 -37 c6 -5 -37 -69 -66 -96 -15 -14 -37 -28 -47 -30 -28 -4 -38 39 -16 72 9 14 24 42 35 62 l19 37 36 -21 c19 -12 37 -23 39 -24z"/>
 <path d="M888 1361 c0 -3 -2 -10 -3 -16 -1 -5 -9 -27 -18 -49 -9 -21 -17 -44 -17 -51 0 -27 72 -66 84 -46 4 6 -7 17 -25 26 -25 13 -30 21 -24 38 4 12 8 31 9 43 4 38 15 46 44 30 15 -8 35 -17 44 -20 14 -4 16 -10 9 -28 -24 -65 -29 -88 -19 -94 15 -9 26 6 38 56 18 72 17 73 -25 94 -39 19 -94 28 -97 17z"/>
 <path d="M690 1235 c-17 -21 -16 -207 2 -260 9 -27 21 -42 39 -49 47 -16 59 -4 59 66 1 35 7 95 14 133 8 39 12 74 9 78 -5 9 -89 47 -103 47 -4 0 -13 -7 -20 -15z m77 -32 c19 -4 20 -9 12 -36 -5 -18 -9 -44 -9 -58 0 -15 -7 -32 -15 -39 -11 -9 -12 -17 -5 -30 16 -29 13 -90 -4 -90 -22 0 -27 13 -31 82 -3 35 -6 72 -7 83 -1 11 -1 40 0 64 2 37 5 42 20 36 9 -4 27 -10 39 -12z"/>
 <path d="M1018 1196 c-6 -11 -13 -52 -14 -89 -2 -64 -1 -69 22 -78 14 -5 34 -9 44 -9 24 0 75 75 84 123 6 33 4 37 -25 52 -50 26 -98 26 -111 1z m112 -39 c0 -12 -42 -97 -51 -102 -4 -3 -19 -3 -33 1 -27 6 -28 25 -4 105 l10 37 39 -17 c21 -9 39 -19 39 -24z"/>
 <path d="M1202 1177 c-29 -30 -45 -112 -26 -128 8 -6 15 -9 15 -5 1 3 3 11 4 16 1 6 3 23 4 39 0 16 9 39 19 51 17 21 19 21 56 6 35 -14 38 -19 31 -43 -10 -40 -22 -51 -58 -55 -42 -4 -37 -22 7 -26 28 -3 38 2 54 25 11 15 22 42 26 59 8 34 -10 56 -54 69 -14 3 -32 9 -41 11 -8 2 -25 -6 -37 -19z"/>
 <path d="M1004 959 c-12 -19 2 -26 60 -28 34 -1 34 -2 38 -52 1 -28 0 -53 -5 -56 -4 -2 -5 -9 -1 -14 3 -5 10 -7 15 -3 5 3 7 9 4 14 -3 5 -1 11 5 15 14 9 12 88 -2 107 -16 19 -104 32 -114 17z"/>
 <path d="M1166 887 c-17 -12 -17 -17 -5 -53 18 -53 22 -57 68 -61 65 -6 102 50 71 108 -9 15 -22 19 -63 19 -29 0 -61 -6 -71 -13z m112 -49 c-3 -28 -8 -33 -38 -39 -19 -4 -35 -7 -36 -6 -1 1 -4 19 -8 40 l-7 37 46 0 c46 0 46 0 43 -32z"/>
 <path d="M2424 885 c-4 -9 -1 -37 6 -63 20 -77 19 -77 32 -64 8 8 8 27 -2 72 -13 63 -26 82 -36 55z"/>
 <path d="M1007 883 c-12 -11 -8 -37 9 -61 22 -32 34 -18 20 23 -14 40 -20 48 -29 38z"/>
 <path d="M893 759 c-6 -6 -9 -18 -6 -26 7 -19 -14 -33 -48 -33 -56 0 -54 -22 10 -108 71 -96 100 -119 130 -102 23 12 28 35 10 46 -6 3 -20 27 -31 51 -15 33 -17 48 -8 58 8 10 8 15 -1 21 -7 4 -17 0 -25 -10 -13 -19 -7 -51 20 -104 27 -53 -3 -38 -56 27 -61 76 -67 91 -36 91 31 0 68 27 68 49 0 11 9 21 21 24 12 3 18 10 14 16 -8 14 -48 14 -62 0z"/>
 <path d="M985 760 c-6 -10 43 -50 61 -50 29 0 21 19 -16 38 -22 11 -43 16 -45 12z"/>
 <path d="M1087 744 c-12 -12 4 -24 33 -24 25 0 32 -6 45 -36 8 -20 13 -40 10 -44 -8 -13 -55 2 -66 22 -16 29 -51 38 -93 24 -49 -17 -42 -32 14 -28 38 3 50 -1 70 -22 23 -26 50 -33 64 -19 4 4 15 8 24 8 25 0 25 35 -1 80 -19 33 -28 41 -58 43 -19 2 -38 0 -42 -4z"/>
 <path d="M2456 723 c-3 -3 -7 -29 -8 -57 l-1 -51 -6 45 c-7 49 -24 57 -29 13 -2 -15 3 -81 12 -147 9 -67 17 -137 19 -156 1 -19 7 -34 12 -33 16 4 23 77 24 235 1 134 -4 169 -23 151z"/>
 <path d="M1285 659 c-14 -11 -25 -29 -25 -40 0 -12 -13 -25 -37 -36 -21 -10 -38 -25 -38 -34 0 -19 80 -89 101 -89 28 0 54 38 48 69 -6 27 -2 31 34 50 22 11 43 24 46 29 2 4 -6 22 -19 38 -29 37 -72 42 -110 13z m93 -29 c10 -17 10 -20 -6 -20 -10 0 -31 -13 -46 -29 -21 -22 -26 -34 -20 -55 9 -39 -18 -43 -61 -10 l-36 27 38 21 c21 12 40 31 43 44 5 25 46 53 65 46 6 -3 16 -13 23 -24z"/>
 </g>
<g id="layer8" fill="#c1c0de" stroke="none">
 <path d="M495 3110 c-4 -6 6 -25 20 -42 24 -29 26 -38 21 -83 -4 -27 -6 -54 -6 -60 1 -5 3 -35 6 -65 5 -48 3 -58 -16 -75 -20 -18 -41 -20 -224 -25 -170 -4 -201 -7 -201 -20 0 -13 26 -15 160 -18 194 -4 236 2 275 34 21 18 30 21 30 11 0 -7 8 -21 18 -30 16 -15 45 -17 203 -17 197 0 229 7 229 51 0 17 8 19 73 19 76 1 136 17 168 46 16 15 21 15 37 3 34 -28 59 -37 118 -43 52 -7 63 -5 87 14 53 42 21 89 -63 92 -25 1 6 4 68 7 l114 6 35 39 c31 34 35 43 30 79 -6 44 -47 94 -67 82 -8 -5 -7 -11 4 -24 22 -24 35 -66 29 -89 -10 -42 -51 -57 -144 -54 -93 3 -136 -8 -146 -34 -10 -28 33 -56 81 -52 41 3 62 -16 28 -26 -29 -10 -113 2 -139 19 -32 21 -29 79 5 106 21 16 42 19 127 19 86 0 104 3 118 18 23 25 21 39 -7 57 -19 13 -49 16 -136 14 -61 -1 -114 2 -118 5 -4 4 -7 15 -7 24 0 22 -39 23 -43 1 -1 -8 7 -27 18 -42 21 -27 23 -27 148 -28 l127 -2 -103 -8 c-57 -5 -116 -16 -133 -24 -29 -15 -31 -15 -49 7 -16 20 -29 23 -108 26 -90 4 -90 4 -70 24 22 22 21 63 -2 63 -8 0 -16 -10 -18 -22 -2 -13 -6 -23 -10 -24 -83 -6 -98 -10 -115 -30 -17 -21 -17 -23 0 -41 16 -17 30 -19 154 -17 75 1 141 -1 148 -5 14 -9 14 -71 0 -98 -18 -34 -70 -48 -182 -48 -57 0 -107 3 -111 8 -4 4 -11 7 -14 7 -50 4 -72 42 -72 121 0 56 16 100 44 123 9 7 13 17 10 22 -11 18 -32 8 -55 -26 l-24 -35 -5 33 c-3 18 -11 32 -19 32 -12 0 -14 -26 -12 -145 3 -178 7 -185 93 -177 42 4 60 1 69 -9 7 -8 9 -17 7 -20 -7 -6 -379 -7 -385 0 -15 14 15 26 66 26 97 0 101 7 103 177 1 78 -2 146 -6 150 -4 4 -14 -1 -22 -11 -10 -15 -14 -53 -14 -148 l0 -128 -56 0 c-30 0 -64 -5 -76 -11 -17 -9 -19 -8 -13 10 3 11 1 37 -4 59 -7 25 -7 49 -1 72 13 46 3 95 -27 131 -26 31 -38 35 -48 19z m369 -257 c19 -23 19 -23 -2 -23 -17 0 -22 6 -22 27 0 14 1 24 3 22 1 -2 11 -14 21 -26z"/>
 <path d="M1701 3101 c-6 -11 -11 -60 -11 -109 0 -76 -3 -91 -20 -107 -26 -24 -25 -41 5 -77 14 -16 25 -35 25 -42 0 -20 36 -48 56 -44 10 2 29 19 42 38 19 29 31 36 68 40 43 6 44 5 44 -22 0 -53 27 -60 232 -56 155 2 188 6 211 21 54 35 65 71 53 167 l-5 45 9 -44 c12 -58 39 -85 106 -106 78 -24 216 -18 267 13 l37 21 25 -25 c31 -31 49 -27 129 32 33 24 66 44 73 44 8 0 37 -18 66 -39 65 -49 95 -61 125 -50 29 11 23 34 -9 35 -41 1 -45 3 -109 50 -63 46 -63 46 -94 30 -17 -9 -53 -32 -80 -51 -26 -19 -54 -35 -62 -35 -31 0 -10 37 41 74 82 59 82 68 -5 127 -28 19 -54 46 -59 61 -11 31 -28 37 -37 13 -6 -14 -8 -13 -20 2 -10 14 -15 15 -25 6 -9 -9 -6 -19 14 -42 23 -28 26 -38 23 -110 -2 -88 -11 -104 -63 -122 -51 -16 -229 -7 -270 15 -33 16 -33 17 -34 94 -2 101 -1 103 28 134 24 25 25 28 8 34 -18 7 -22 4 -61 -51 -14 -19 -14 -19 -28 0 -39 55 -43 58 -61 51 -16 -6 -16 -9 10 -36 25 -26 28 -36 25 -82 -1 -29 -2 -63 -2 -75 0 -13 2 -46 3 -74 3 -79 -8 -83 -225 -89 -98 -3 -183 -2 -188 1 -7 4 -11 70 -12 170 0 90 -5 170 -9 177 -19 28 -27 -5 -27 -108 l0 -110 -26 10 c-14 6 -36 10 -50 10 -24 0 -24 2 -24 86 0 84 -12 130 -31 119 -5 -4 -9 -52 -9 -109 0 -125 8 -140 74 -140 37 0 46 -4 44 -16 -2 -10 -16 -15 -47 -16 -46 -1 -71 -20 -71 -56 0 -11 -7 -18 -20 -18 -13 0 -20 7 -20 19 0 11 -11 32 -24 48 l-24 28 24 22 c22 21 24 29 24 127 0 104 -9 135 -29 97z m1212 -101 c20 -14 36 -29 34 -34 -1 -4 -24 -24 -50 -43 l-47 -35 0 77 c0 59 3 74 13 68 7 -4 29 -19 50 -33z"/>
 <path d="M2916 3112 c-10 -17 98 -102 132 -105 18 -1 132 79 132 94 0 23 -25 16 -68 -20 -27 -23 -54 -41 -61 -41 -6 0 -36 18 -66 40 -58 43 -61 44 -69 32z"/>
 <path d="M176 3049 c-30 -24 -34 -59 -8 -82 15 -14 42 -17 151 -17 128 0 133 1 157 25 24 24 25 28 11 48 -21 33 -71 46 -183 46 -88 1 -105 -2 -128 -20z m269 -44 c0 -19 -7 -20 -124 -20 -121 0 -124 0 -127 23 l-4 23 128 -3 c119 -3 127 -4 127 -23z"/>
 <path d="M2012 3047 c-27 -28 -28 -58 -4 -80 15 -14 42 -17 150 -17 119 0 134 2 152 20 23 23 24 33 10 60 -15 28 -72 40 -186 40 -92 0 -102 -2 -122 -23z m273 -42 c0 -19 -8 -20 -127 -23 l-128 -3 0 26 0 26 128 -3 c119 -3 127 -4 127 -23z"/>
 <path d="M2540 3063 c-38 -14 -50 -36 -50 -93 0 -48 4 -60 26 -81 22 -21 37 -24 108 -27 77 -4 84 -2 114 23 28 23 32 33 32 75 0 63 -6 78 -41 95 -28 15 -156 20 -189 8z m188 -95 l3 -57 -37 -7 c-39 -7 -146 0 -163 11 -15 9 -14 88 1 103 9 9 41 12 103 10 l90 -3 3 -57z"/>
 <path d="M3170 3027 c-30 -24 -56 -50 -58 -59 -3 -16 105 -108 127 -108 28 0 15 21 -34 56 -30 21 -55 44 -55 49 0 6 25 27 55 48 31 21 53 43 50 48 -11 16 -29 9 -85 -34z"/>
 <path d="M937 2932 c-34 -38 24 -72 123 -72 63 0 104 12 133 37 16 15 16 17 1 35 -15 15 -33 18 -129 18 -96 0 -114 -3 -128 -18z m161 -29 c-21 -2 -55 -2 -75 0 -21 2 -4 4 37 4 41 0 58 -2 38 -4z"/>
 <path d="M170 2890 c-27 -27 -25 -55 6 -79 23 -18 41 -21 136 -21 121 0 172 14 183 51 6 18 1 28 -19 46 -25 21 -36 23 -157 23 -116 0 -131 -2 -149 -20z m275 -23 c37 -28 7 -37 -121 -37 l-124 0 0 25 0 25 113 0 c79 0 119 -4 132 -13z"/>
 <path d="M2012 2898 c-7 -7 -12 -29 -12 -50 0 -54 19 -61 165 -56 104 2 126 6 144 22 26 24 27 50 1 76 -18 18 -33 20 -153 20 -90 0 -137 -4 -145 -12z m268 -28 c11 -6 17 -17 14 -25 -5 -12 -30 -15 -135 -15 -118 0 -129 2 -129 18 0 10 3 22 7 25 10 11 222 8 243 -3z"/>
 <path d="M730 2481 c-116 -40 -205 -105 -279 -206 -37 -49 -71 -114 -71 -133 0 -5 7 -15 16 -22 13 -11 23 -5 72 42 107 104 217 148 372 148 52 0 127 -7 165 -16 149 -34 347 -124 393 -179 16 -20 41 -36 62 -40 29 -6 87 -46 155 -108 6 -5 -1 -17 -20 -33 -33 -26 -45 -30 -45 -13 0 20 -80 128 -100 134 -24 8 -37 0 -143 -84 -50 -40 -77 -68 -77 -81 0 -11 27 -48 59 -81 l59 -62 -41 -37 c-22 -21 -48 -53 -58 -71 -10 -19 -24 -45 -31 -58 -11 -22 -9 -26 27 -58 21 -18 49 -36 62 -39 23 -6 29 -15 17 -27 -3 -3 -35 12 -70 34 -35 21 -73 39 -84 39 -23 0 -69 -59 -101 -130 l-21 -48 -64 29 c-35 16 -73 29 -84 29 -25 0 -58 -51 -67 -103 -3 -21 -12 -41 -19 -44 -8 -3 -39 3 -69 12 -52 17 -57 17 -74 1 -24 -22 -32 -120 -21 -251 10 -112 15 -120 86 -131 69 -10 89 8 91 87 0 35 4 94 8 130 l7 66 38 -8 c85 -19 90 -24 84 -73 -5 -33 -2 -52 9 -70 15 -22 15 -25 1 -37 -13 -10 -15 -26 -11 -74 3 -33 8 -70 12 -83 7 -20 4 -22 -28 -22 -57 0 -87 -16 -93 -50 -6 -26 -11 -30 -38 -30 -45 0 -70 -21 -63 -51 7 -28 67 -110 131 -180 49 -53 84 -62 136 -36 36 18 36 42 1 84 -40 49 -40 69 1 77 27 5 36 2 59 -24 15 -16 33 -30 38 -30 6 0 11 -6 11 -13 0 -7 24 -37 54 -66 40 -40 59 -52 72 -47 16 6 10 15 -36 55 -57 50 -63 81 -17 81 29 0 47 18 47 47 0 27 20 39 78 48 37 5 46 3 62 -17 24 -29 25 -57 3 -74 -17 -12 -17 -13 0 -20 13 -4 26 0 39 14 26 25 20 54 -23 105 -34 42 -33 42 -128 17 -35 -8 -46 -8 -52 2 -14 22 -5 31 41 42 61 15 84 49 75 109 -11 73 -22 81 -109 85 -55 3 -76 8 -76 18 0 7 -9 19 -19 26 -13 10 -17 19 -11 28 6 10 12 11 22 3 7 -6 42 -14 78 -18 60 -6 67 -5 86 17 36 39 69 126 58 155 -12 34 -139 78 -180 63 -14 -6 -27 -10 -28 -10 -2 0 21 24 50 54 l54 54 65 -35 c51 -27 68 -32 84 -24 31 17 141 143 141 162 0 13 -72 84 -119 116 -3 2 16 25 42 51 61 62 61 82 0 145 l-48 48 25 19 25 19 7 -27 c9 -35 62 -92 84 -92 15 0 15 -3 -4 -23 -12 -13 -22 -30 -22 -38 0 -26 90 -119 113 -118 29 1 181 110 185 132 3 16 -6 43 -40 112 -9 18 -9 18 4 5 76 -78 214 -266 295 -400 35 -58 132 -252 153 -305 29 -74 40 -106 54 -150 35 -113 45 -152 52 -197 7 -53 25 -76 42 -55 8 9 7 24 -2 52 -8 22 -16 56 -19 76 -2 19 -9 45 -16 56 -6 12 -11 31 -11 42 0 12 -4 29 -10 39 -5 9 -26 60 -46 112 -93 243 -250 499 -438 713 -67 76 -91 93 -109 79 -7 -5 -50 -31 -97 -57 l-85 -46 -27 32 c-16 18 -28 36 -28 39 0 7 99 106 124 124 12 8 17 19 13 29 -10 26 -150 136 -182 143 -16 4 -45 22 -63 41 -58 58 -305 168 -431 190 -39 7 -246 7 -271 0 -61 -17 -173 -72 -220 -110 -24 -20 -46 -34 -49 -31 -8 8 72 115 112 149 46 40 140 87 213 109 58 16 222 19 281 5 21 -5 51 -12 67 -15 16 -3 41 -11 55 -16 14 -6 34 -13 45 -15 40 -7 216 -99 307 -159 366 -242 721 -712 860 -1139 11 -33 26 -80 34 -105 8 -25 16 -54 18 -65 2 -11 9 -38 15 -60 6 -22 13 -60 16 -85 3 -25 9 -74 14 -110 11 -81 7 -246 -7 -297 -6 -21 -11 -50 -11 -64 0 -15 -9 -46 -21 -70 l-20 -44 5 50 c18 152 19 180 3 193 -22 19 -26 5 -32 -110 -3 -56 -10 -124 -17 -151 -10 -40 -10 -50 3 -62 13 -14 18 -12 41 12 55 57 97 238 98 413 0 107 -25 302 -49 383 -32 110 -87 269 -93 273 -5 3 -8 12 -8 20 0 29 -132 280 -206 390 -41 62 -110 157 -153 211 -102 128 -312 330 -432 415 -108 77 -296 176 -384 203 -33 10 -71 22 -85 28 -14 6 -92 12 -175 14 -127 2 -159 0 -205 -16z m754 -510 c20 -27 36 -54 36 -61 0 -7 -12 -22 -27 -33 -16 -12 -47 -39 -69 -59 -23 -21 -44 -38 -48 -38 -15 0 -106 94 -106 109 1 19 138 130 162 131 9 0 32 -22 52 -49z m305 -234 c31 -63 27 -78 -27 -113 -26 -17 -59 -39 -75 -49 l-27 -17 -35 36 c-19 21 -35 46 -35 56 0 30 126 128 167 130 6 0 21 -19 32 -43z m-322 -25 c18 -20 33 -41 33 -46 0 -9 -85 -94 -112 -111 -8 -5 -27 -18 -41 -28 -26 -19 -27 -19 -62 3 -19 12 -35 28 -35 35 0 19 42 79 98 141 55 60 71 61 119 6z m13 -234 c22 -18 40 -40 40 -49 0 -8 -24 -42 -54 -74 l-55 -58 -47 19 c-46 19 -56 29 -69 68 -5 18 -9 16 -36 -15 -17 -19 -45 -51 -64 -71 l-33 -38 -46 17 c-48 18 -56 34 -31 67 8 10 13 22 10 25 -6 11 48 103 67 115 22 13 102 -26 125 -61 9 -13 18 -23 22 -23 3 0 26 25 49 55 51 65 68 68 122 23z m-550 -113 c10 0 75 -29 87 -37 8 -6 9 -19 2 -41 -12 -42 5 -57 94 -86 50 -15 73 -19 87 -11 21 11 129 -12 141 -31 8 -13 -21 -93 -43 -118 -14 -16 -23 -17 -69 -9 -30 5 -62 17 -72 26 -18 16 -20 15 -41 -11 -17 -22 -30 -27 -57 -26 -50 4 -57 13 -53 71 2 28 -1 58 -6 67 -5 9 -32 23 -62 30 -94 23 -88 19 -82 59 12 83 37 138 58 125 6 -4 13 -8 16 -8z m-143 -142 c26 -12 32 -20 28 -34 -4 -11 -8 -40 -10 -67 -2 -26 -9 -60 -15 -77 -6 -16 -10 -48 -8 -70 l3 -40 -42 -3 c-40 -3 -42 -2 -51 31 -11 39 -16 262 -7 277 8 12 58 4 102 -17z m328 -266 c26 -53 34 -57 110 -57 l74 0 7 -35 c3 -19 3 -46 0 -60 -5 -21 -12 -25 -41 -25 -54 0 -85 -16 -85 -44 0 -14 4 -27 9 -30 4 -3 11 -20 15 -37 5 -24 1 -35 -17 -50 -31 -26 -51 -24 -90 11 -42 37 -103 42 -131 11 -15 -17 -16 -25 -7 -54 7 -19 21 -43 31 -52 23 -20 26 -45 8 -46 -7 0 -23 -2 -34 -5 -25 -4 -94 64 -144 142 -40 63 -39 74 8 74 44 0 62 14 62 47 0 19 4 22 23 18 12 -3 41 -2 63 3 35 8 43 7 53 -10 9 -15 19 -17 54 -12 64 10 87 21 87 43 0 26 -26 47 -43 33 -7 -6 -36 -14 -65 -18 l-52 -7 -1 32 c-1 17 -2 34 -3 39 -12 53 -16 84 -11 92 5 9 116 6 120 -3z"/>
 <path d="M2315 2470 c-15 -16 -21 -18 -33 -8 -8 7 -41 12 -74 13 -48 0 -62 -4 -74 -20 -16 -21 -11 -79 8 -102 7 -9 -1 -14 -29 -18 -89 -15 -96 -25 -83 -116 12 -82 32 -101 98 -93 44 5 45 5 22 -8 -20 -11 -26 -22 -28 -62 -5 -77 12 -88 117 -80 l86 7 -27 -22 c-21 -17 -27 -33 -33 -82 -6 -54 -5 -64 13 -81 25 -26 106 -34 142 -16 28 15 64 107 57 146 -5 25 0 26 39 12 32 -13 49 -1 70 48 21 50 18 67 -17 96 -24 21 -41 26 -83 26 -72 0 -96 -19 -96 -76 0 -31 -4 -44 -14 -44 -8 0 -23 -3 -33 -7 -17 -6 -17 -6 0 14 11 13 17 36 17 70 0 58 -18 81 -74 90 l-36 6 0 62 c0 35 -3 70 -6 79 -4 11 0 16 13 16 10 0 24 5 30 11 8 8 17 7 34 -4 13 -8 48 -18 78 -21 70 -9 91 8 91 74 0 61 -14 77 -83 95 -73 19 -70 19 -92 -5z m126 -41 c11 -5 16 -21 15 -46 -1 -38 -1 -38 -46 -39 -66 -2 -80 9 -80 61 l0 44 47 -6 c26 -2 55 -9 64 -14z m-166 -19 c9 -42 -1 -52 -49 -48 -54 5 -66 13 -66 49 0 29 1 29 54 29 52 0 55 -1 61 -30z m-62 -127 c6 -23 3 -101 -4 -108 -11 -11 -127 -16 -133 -6 -4 5 -9 35 -12 65 l-6 55 44 4 c97 8 107 8 111 -10z m114 -176 c2 -3 1 -25 -4 -49 l-9 -43 -81 -3 -81 -3 1 38 c1 21 4 36 7 34 3 -2 20 5 37 16 30 18 115 24 130 10z m216 -42 c15 -6 17 -14 12 -44 -9 -49 -12 -52 -43 -45 -84 18 -93 24 -90 57 2 24 9 33 28 38 28 7 66 5 93 -6z m-128 -125 c24 -9 25 -13 19 -57 -8 -65 -17 -73 -80 -73 l-54 0 0 58 c0 51 3 60 23 70 28 14 59 15 92 2z"/>
 <path d="M1690 2417 c-67 -33 -65 -55 12 -116 66 -53 105 -64 128 -36 17 20 -1 104 -31 146 -24 35 -48 36 -109 6z m89 -34 c5 -10 14 -35 19 -56 9 -30 8 -39 -3 -43 -16 -6 -115 65 -115 82 0 13 42 32 72 33 10 1 21 -7 27 -16z"/>
 <path d="M2700 2261 c-5 -11 -10 -28 -10 -39 0 -11 -11 -27 -24 -35 -30 -20 -53 -105 -37 -136 6 -11 19 -25 29 -30 15 -9 15 -10 -5 -11 -31 0 -56 -42 -51 -85 3 -28 0 -35 -17 -37 -13 -2 -29 -22 -48 -61 -30 -64 -27 -83 18 -113 36 -24 53 -7 21 23 -31 28 -31 32 -9 78 16 34 20 36 55 31 30 -4 40 -2 48 13 8 15 5 22 -16 36 -18 12 -24 23 -22 43 3 24 7 27 40 25 58 -3 67 25 23 67 -36 35 -42 60 -25 104 12 33 21 32 60 -1 l32 -27 18 24 c21 28 18 40 -10 40 -22 0 -55 44 -45 60 10 16 40 12 60 -10 13 -14 22 -17 29 -10 7 7 1 20 -19 40 -34 35 -79 40 -95 11z"/>
 <path d="M1992 2114 c-34 -23 -28 -57 18 -98 45 -40 52 -42 70 -21 15 18 7 77 -15 111 -18 28 -41 30 -73 8z m50 -49 c6 -14 8 -28 4 -32 -9 -9 -47 38 -40 49 10 15 25 8 36 -17z"/>
 <path d="M2107 1950 c-26 -37 14 -70 42 -36 9 10 7 19 -7 36 l-19 23 -16 -23z"/>
 <path d="M983 1928 c-50 -54 -123 -159 -123 -179 0 -10 -4 -21 -10 -24 -22 -14 -81 -129 -78 -154 3 -28 85 -91 118 -91 12 0 35 27 66 78 27 42 54 80 60 84 26 17 144 168 144 186 0 23 -115 132 -139 132 -4 0 -21 -15 -38 -32z m90 -44 c27 -21 47 -45 47 -56 0 -26 -90 -137 -116 -144 -28 -7 -92 34 -100 64 -5 17 7 40 50 97 31 41 60 75 65 75 4 0 29 -16 54 -36z m-135 -204 c26 -17 30 -61 7 -80 -8 -7 -15 -18 -15 -24 0 -7 -11 -23 -24 -35 -24 -22 -25 -22 -60 -6 -19 9 -37 24 -39 33 -2 10 10 42 26 74 26 47 35 56 56 55 14 -1 36 -9 49 -17z"/>
 <path d="M1340 554 c-11 -12 -10 -18 3 -31 15 -15 17 -15 25 8 15 38 -4 53 -28 23z"/>
 </g>
<g id="layer9" fill="#06afef" stroke="none">
 <path d="M2818 2158 c-8 -13 -19 -32 -25 -43 -25 -40 -53 -108 -53 -125 0 -10 -7 -23 -15 -30 -8 -7 -15 -19 -15 -27 0 -13 -11 -37 -41 -93 -20 -37 -59 -123 -59 -131 0 -5 20 -31 45 -59 49 -55 71 -91 96 -162 22 -61 24 -286 3 -336 -8 -19 -14 -41 -14 -48 0 -13 -55 -131 -86 -184 -11 -19 -13 -44 -8 -105 6 -76 16 -105 35 -105 11 0 127 140 172 208 128 189 217 466 217 673 0 70 -28 238 -49 291 -46 119 -81 184 -138 256 -39 48 -48 51 -65 20z"/>
 <path d="M2330 606 c-69 -45 -176 -92 -275 -122 -47 -14 -94 -18 -210 -18 -161 0 -206 10 -314 70 -24 13 -56 24 -71 24 -30 0 -70 -37 -70 -66 0 -21 -71 -61 -89 -49 -6 3 -26 -3 -45 -14 -40 -25 -93 -27 -118 -4 -14 13 -25 15 -46 7 -50 -17 -31 -42 68 -90 194 -94 424 -125 660 -89 194 30 390 99 525 185 17 11 41 24 54 30 23 10 23 14 19 86 -3 41 -9 79 -14 83 -5 5 -38 -10 -74 -33z"/>
 </g>
<g id="layer10" fill="#323594" stroke="none">
 <path d="M106 3101 c-14 -16 -16 -40 -14 -177 l3 -159 28 -3 c49 -6 58 2 41 37 -15 29 -11 106 7 116 4 3 0 19 -8 36 -15 30 -14 102 2 117 4 4 66 8 138 9 72 2 135 7 140 12 25 25 -9 31 -162 31 -141 0 -160 -2 -175 -19z"/>
 <path d="M975 3110 c-12 -19 10 -32 46 -28 48 4 46 32 -3 36 -20 2 -39 -2 -43 -8z"/>
 <path d="M1306 3111 c-15 -23 25 -32 140 -29 98 2 119 6 119 18 0 12 -22 15 -127 18 -69 1 -129 -2 -132 -7z"/>
 <path d="M1963 3108 c-11 -18 -6 -329 6 -341 5 -5 17 -7 26 -3 12 4 14 10 5 25 -14 27 -13 104 2 119 10 10 10 17 0 32 -6 11 -12 42 -12 70 0 46 3 51 28 61 15 6 77 9 140 8 90 -3 115 -1 122 11 5 8 6 18 4 22 -9 14 -312 10 -321 -4z"/>
 <path d="M2536 3111 c-13 -21 25 -32 106 -29 66 2 83 6 83 18 0 12 -18 16 -92 18 -50 1 -94 -1 -97 -7z"/>
 <path d="M2866 3111 c-3 -5 1 -14 8 -20 16 -13 32 2 21 19 -8 12 -22 13 -29 1z"/>
 <path d="M3192 3091 c-12 -17 -18 -32 -13 -35 11 -7 63 48 54 57 -11 12 -19 8 -41 -22z"/>
 <path d="M771 3081 c-6 -11 -11 -80 -11 -155 0 -80 -4 -137 -10 -141 -18 -11 0 -25 34 -25 42 0 49 8 31 34 -11 15 -15 53 -15 158 0 133 -8 169 -29 129z"/>
 <path d="M478 3074 c-3 -3 1 -18 8 -34 18 -34 9 -77 -16 -85 -10 -3 -24 -12 -30 -20 -11 -13 -7 -17 19 -26 39 -14 51 -51 28 -91 -22 -39 0 -49 30 -13 17 19 23 34 18 49 -14 44 -17 113 -6 120 17 11 13 45 -10 77 -20 29 -30 34 -41 23z"/>
 <path d="M902 3057 c-18 -19 -22 -35 -22 -94 0 -47 5 -74 13 -82 19 -15 28 -3 21 26 -5 17 0 31 16 48 20 22 21 25 6 31 -20 8 -21 33 -1 60 13 20 11 34 -5 34 -4 0 -16 -10 -28 -23z"/>
 <path d="M1585 3071 c-3 -5 -1 -12 5 -16 15 -9 12 -46 -6 -67 -16 -16 -16 -18 0 -24 25 -10 46 15 46 55 0 46 -28 79 -45 52z"/>
 <path d="M1737 3074 c-4 -4 -7 -51 -7 -105 0 -80 -3 -98 -16 -103 -16 -6 -16 -8 0 -24 9 -10 16 -26 16 -34 0 -18 24 -41 33 -31 4 3 7 16 7 28 0 13 7 28 16 36 14 12 14 14 0 24 -12 9 -16 35 -18 110 -3 91 -11 118 -31 99z"/>
 <path d="M2306 3071 c-3 -5 1 -14 9 -21 8 -7 15 -29 15 -50 0 -33 -4 -39 -30 -49 -16 -5 -30 -15 -30 -21 0 -6 14 -16 30 -21 17 -6 31 -18 32 -27 2 -31 -3 -67 -13 -78 -17 -21 11 -28 32 -8 20 18 27 88 9 99 -5 3 -10 19 -10 35 0 16 5 32 10 35 19 12 11 71 -13 93 -26 24 -33 26 -41 13z"/>
 <path d="M2471 3057 c-17 -19 -21 -35 -21 -94 0 -50 4 -74 15 -83 20 -17 38 -4 25 20 -15 27 -12 111 4 142 19 36 5 44 -23 15z"/>
 <path d="M2756 3071 c-4 -5 -2 -12 4 -16 5 -3 10 -44 10 -90 0 -85 10 -112 29 -76 15 27 13 131 -2 160 -13 27 -32 37 -41 22z"/>
 <path d="M3090 3009 c-14 -10 -35 -19 -46 -19 -26 0 -48 -24 -41 -44 4 -10 20 -14 49 -13 38 2 43 5 46 27 2 14 10 32 19 42 21 24 1 30 -27 7z"/>
 <path d="M1195 2980 c-4 -6 -2 -16 3 -23 6 -7 12 -28 14 -47 4 -49 22 -44 26 8 4 54 -24 93 -43 62z"/>
 <path d="M1320 2940 c-23 -23 -26 -43 -7 -59 17 -13 27 -5 27 24 0 11 5 26 11 32 7 7 8 13 0 17 -6 4 -19 -2 -31 -14z"/>
 <path d="M3166 2881 c-4 -5 -2 -12 3 -15 5 -4 12 -2 15 3 4 5 2 12 -3 15 -5 4 -12 2 -15 -3z"/>
 <path d="M1175 2866 c-14 -10 -15 -15 -6 -21 8 -4 19 -1 28 8 20 19 1 30 -22 13z"/>
 <path d="M2736 2861 c-4 -5 -2 -12 3 -15 5 -4 12 -2 15 3 4 5 2 12 -3 15 -5 4 -12 2 -15 -3z"/>
 <path d="M2886 2861 c-4 -5 -2 -12 3 -15 5 -4 12 -2 15 3 4 5 2 12 -3 15 -5 4 -12 2 -15 -3z"/>
 <path d="M795 2450 c-57 -9 -120 -31 -137 -48 -7 -7 -17 -12 -23 -12 -6 0 -37 -23 -69 -51 -69 -62 -63 -82 13 -43 66 32 196 64 264 64 174 -1 517 -127 590 -217 10 -13 27 -23 38 -23 21 0 109 -63 174 -125 32 -29 35 -36 25 -55 -6 -12 -20 -24 -30 -28 -20 -8 -100 -95 -100 -109 0 -6 9 -18 20 -28 20 -18 22 -18 68 5 26 13 63 34 82 47 60 40 87 32 155 -43 60 -67 205 -256 218 -284 4 -8 16 -28 27 -45 11 -16 23 -37 26 -45 4 -8 13 -22 20 -31 19 -22 131 -249 139 -282 4 -15 11 -30 16 -33 5 -3 9 -12 9 -21 0 -8 6 -29 13 -46 24 -56 39 -101 48 -145 5 -23 13 -50 17 -60 5 -9 15 -71 22 -137 17 -169 24 -210 35 -210 6 0 11 59 13 145 3 140 -4 198 -39 335 -6 22 -14 56 -19 75 -8 34 -15 56 -47 145 -48 131 -143 317 -246 480 -37 60 -148 201 -229 292 -224 252 -477 424 -763 517 -58 19 -256 29 -330 16z"/>
 <path d="M2177 2433 c-12 -12 -7 -50 7 -62 24 -20 70 -10 74 17 2 13 -2 30 -8 38 -13 14 -61 19 -73 7z"/>
 <path d="M2344 2426 c-11 -29 2 -51 39 -69 44 -20 53 -17 60 19 4 21 -1 29 -27 45 -37 23 -65 24 -72 5z"/>
 <path d="M1709 2374 c-11 -13 -8 -19 21 -42 44 -35 56 -34 52 3 -6 53 -44 73 -73 39z"/>
 <path d="M2110 2291 c-35 -6 -35 -6 -32 -55 3 -67 12 -76 65 -64 58 15 66 25 58 78 -7 50 -18 55 -91 41z"/>
 <path d="M2745 2220 c-4 -6 -3 -16 3 -22 6 -6 12 -6 17 2 4 6 3 16 -3 22 -6 6 -12 6 -17 -2z"/>
 <path d="M2674 2108 c-16 -31 -16 -32 11 -55 32 -28 47 -26 59 10 8 22 6 31 -14 52 -30 32 -36 32 -56 -7z"/>
 <path d="M2233 2105 c-10 -8 -25 -15 -34 -15 -28 0 -43 -27 -31 -55 10 -22 15 -23 69 -18 68 7 83 16 83 53 0 45 -48 64 -87 35z"/>
 <path d="M2440 2045 c-18 -21 -5 -45 24 -45 14 0 28 -4 31 -10 11 -18 34 -11 51 15 13 20 14 28 4 40 -16 20 -93 20 -110 0z"/>
 <path d="M1358 1959 c-43 -33 -78 -66 -78 -73 0 -8 20 -32 45 -55 l45 -42 48 40 c26 22 58 49 72 60 l25 19 -39 56 c-21 31 -39 56 -40 56 0 0 -36 -28 -78 -61z"/>
 <path d="M2650 1945 c-10 -12 -10 -19 -1 -28 14 -14 46 2 46 24 0 20 -30 23 -45 4z"/>
 <path d="M2327 1927 c-12 -8 -18 -28 -20 -57 l-2 -45 46 -3 c50 -3 60 3 78 57 8 25 8 37 0 47 -14 18 -80 18 -102 1z"/>
 <path d="M999 1883 c-43 -49 -89 -111 -89 -122 0 -15 76 -63 93 -59 8 1 37 30 65 63 l51 60 -41 42 c-23 24 -45 43 -48 43 -4 0 -17 -12 -31 -27z"/>
 <path d="M2587 1833 c-24 -28 -31 -67 -13 -82 23 -19 39 -9 54 33 11 29 11 40 2 51 -16 19 -23 19 -43 -2z"/>
 <path d="M1710 1749 c-42 -25 -110 -89 -110 -103 0 -15 52 -66 67 -66 13 0 86 49 125 84 16 14 15 18 -5 57 -13 24 -27 44 -32 46 -6 2 -26 -7 -45 -18z"/>
 <path d="M1350 1694 c-28 -26 -50 -51 -50 -56 0 -6 -9 -21 -20 -35 -26 -33 -26 -35 10 -62 l31 -22 42 32 c69 53 117 102 117 119 0 19 -50 70 -68 70 -7 0 -35 -21 -62 -46z"/>
 <path d="M848 1648 c-40 -69 -40 -75 -9 -98 16 -11 34 -20 40 -20 10 0 56 64 68 95 5 16 -42 65 -63 65 -6 0 -23 -19 -36 -42z"/>
 <path d="M1388 1473 c-38 -42 -78 -99 -78 -111 0 -6 21 -21 46 -33 l45 -23 57 58 c62 64 62 72 2 114 -41 28 -41 28 -72 -5z"/>
 <path d="M1163 1478 c-26 -33 -73 -129 -73 -150 0 -56 55 -64 103 -15 18 17 43 49 56 70 27 43 25 47 -40 85 -29 17 -39 19 -46 10z"/>
 <path d="M891 1348 c-16 -42 -31 -94 -31 -106 0 -13 71 -52 93 -52 20 0 38 23 47 62 4 18 11 41 15 50 5 13 0 20 -22 29 -15 6 -40 17 -55 25 -34 18 -37 18 -47 -8z"/>
 <path d="M696 1232 c-7 -12 -8 -117 -2 -202 6 -80 21 -104 61 -98 17 3 20 11 22 68 2 62 19 175 29 191 6 10 -11 20 -56 36 -41 15 -47 16 -54 5z"/>
 <path d="M1034 1204 c-3 -11 -10 -30 -14 -44 -16 -47 -19 -99 -7 -109 7 -5 24 -12 38 -16 22 -6 31 -1 51 27 29 39 52 92 46 109 -2 6 -19 17 -38 24 -19 7 -43 16 -52 20 -13 5 -20 2 -24 -11z"/>
 <path d="M1202 1158 c-22 -36 -31 -86 -19 -106 5 -7 29 -12 56 -12 41 0 51 4 65 25 9 14 19 39 22 55 6 28 3 31 -37 50 -59 26 -64 25 -87 -12z"/>
 <path d="M1008 943 c-13 -16 -3 -89 18 -120 17 -26 65 -31 83 -9 7 9 11 38 9 73 l-3 58 -48 6 c-33 3 -51 1 -59 -8z"/>
 <path d="M1175 880 c-8 -12 4 -81 17 -97 12 -16 79 -5 96 15 15 20 16 64 0 80 -14 14 -104 16 -113 2z"/>
 <path d="M925 761 c-25 -5 -30 -10 -27 -33 3 -28 -2 -31 -63 -40 -35 -6 -27 -33 35 -111 44 -56 67 -77 84 -77 34 0 36 7 11 53 -13 23 -25 53 -27 66 -3 22 3 26 47 39 71 20 93 18 116 -12 23 -29 69 -35 88 -12 9 10 7 25 -9 61 l-20 48 -65 -6 c-54 -4 -69 -1 -89 14 -25 20 -32 21 -81 10z"/>
 <path d="M1308 659 c-28 -14 -38 -26 -38 -43 0 -17 -9 -27 -30 -36 -53 -22 -54 -34 -10 -74 22 -20 46 -36 53 -36 24 0 49 37 42 60 -8 25 18 60 45 60 30 0 40 20 23 47 -25 38 -44 43 -85 22z"/>
 </g>

</svg>